<svg width="140" height="140" viewBox="0 0 140 140" fill="none" xmlns="http://www.w3.org/2000/svg">
<g clip-path="url(#clip0)">
<path d="M70 140C108.66 140 140 108.66 140 70C140 31.3401 108.66 0 70 0C31.3401 0 0 31.3401 0 70C0 108.66 31.3401 140 70 140Z" fill="#8F2525"/>
<path d="M139.957 72.4806L115.689 48.2119L27.9823 54.1914L65.2803 91.4894L18.4817 98.3904L59.275 139.184C62.7715 139.721 66.3532 140 70.0003 140C107.83 140 138.651 109.992 139.957 72.4806Z" fill="#601A1A"/>
<path d="M61.0507 98.3899H18.4817V90.1868H55.7777L67.9099 63.6097L75.3723 67.0162L61.0507 98.3899Z" fill="#DCE1EB"/>
<path d="M18.4817 98.3902H61.0507L63.6771 92.636H18.4817V98.3902Z" fill="#BEC3D2"/>
<path d="M101.215 53.343L114.956 58.3916L108.003 77.3139L94.2626 72.2653L101.215 53.343Z" fill="#C16C6C"/>
<path d="M97.5725 63.0986L94.2095 72.2446L107.944 77.295L111.324 68.1017L97.5725 63.0986Z" fill="#9B5454"/>
<path d="M112.932 55.8689L122.71 59.4616L114.606 81.5209L104.827 77.9283L112.932 55.8689Z" fill="white"/>
<path d="M104.768 77.9073L114.542 81.5014L118.508 70.7153L108.722 67.1549L104.768 77.9073Z" fill="#E9EDF5"/>
<path d="M36.2512 31.7701L104.142 56.7139L95.8944 79.1607L28.004 54.2169L36.2512 31.7701Z" fill="#E9EDF5"/>
<path d="M33.3042 39.7181L27.9817 54.1915L95.8399 79.1448L101.249 64.4363L33.3042 39.7181Z" fill="#CDD2E1"/>
<path d="M93.804 67.335L31.5649 44.4477L40.3663 20.5134L115.689 48.2116L93.804 67.335Z" fill="white"/>
<path d="M33.3043 39.7181L31.5649 44.4481L93.8039 67.3353L98.3348 63.3762L33.3043 39.7181Z" fill="#E9EDF5"/>
<path d="M41.7405 32.5031L73.3812 44.1283L70.0753 53.1261L38.4346 41.5009L41.7405 32.5031Z" fill="#BEC3D2"/>
<path d="M68.0358 95.301C69.5156 89.041 65.6404 82.7667 59.3804 81.287C53.1204 79.8072 46.8461 83.6824 45.3663 89.9424C43.8866 96.2024 47.7617 102.477 54.0217 103.956C60.2817 105.436 66.5561 101.561 68.0358 95.301Z" fill="white"/>
<path d="M45.062 92.636C45.0896 99.0459 50.2934 104.234 56.7099 104.234C63.1264 104.234 68.3302 99.0462 68.3578 92.636H45.062Z" fill="#E9EDF5"/>
</g>
<defs>
<clipPath id="clip0">
<rect width="140" height="140" fill="white"/>
</clipPath>
</defs>
</svg>
