<svg width="140" height="140" viewBox="0 0 140 140" fill="none" xmlns="http://www.w3.org/2000/svg">
<path d="M70 140C108.66 140 140 108.66 140 70C140 31.3401 108.66 0 70 0C31.3401 0 0 31.3401 0 70C0 108.66 31.3401 140 70 140Z" fill="#8F2525"/>
<path d="M80.2233 119H56.559C54.4611 119 52.7605 117.299 52.7605 115.201V108.277H84.0217V115.201C84.0217 117.299 82.3211 119 80.2233 119Z" fill="#FFDDCF"/>
<path d="M52.7605 108.277V115.201C52.7605 117.299 54.4611 119 56.559 119H65.9275V108.277H52.7605Z" fill="#FFCBBE"/>
<path d="M79.4134 56.1948H90.7747V33.2132C90.7747 30.0759 88.2313 27.5325 85.0939 27.5325C81.9566 27.5325 79.4132 30.0759 79.4132 33.2132V56.1948H79.4134Z" fill="#FFDDCF"/>
<path d="M87.6473 28.139C86.8794 27.7518 86.0127 27.5325 85.0939 27.5325C81.9566 27.5325 79.4132 30.0759 79.4132 33.2132V56.1948H84.5197V33.2132C84.5199 30.9944 85.7928 29.0742 87.6473 28.139Z" fill="#FFCBBE"/>
<path d="M45.3234 56.1947H56.6847V43.7808C56.6847 40.6435 54.1413 38.1001 51.004 38.1001C47.8666 38.1001 45.3232 40.6435 45.3232 43.7808V56.1947H45.3234Z" fill="#FFDDCF"/>
<path d="M53.6642 38.761C52.8706 38.3395 51.9657 38.1001 51.0046 38.1001C47.8673 38.1001 45.3239 40.6435 45.3239 43.7808V56.1947H50.6432V43.7808C50.643 41.6046 51.8673 39.7152 53.6642 38.761Z" fill="#FFCBBE"/>
<path d="M56.6821 56.1948H68.0434V33.2132C68.0434 30.0759 65.5 27.5325 62.3626 27.5325C59.2253 27.5325 56.6819 30.0759 56.6819 33.2132V56.1948H56.6821Z" fill="#FFDDCF"/>
<path d="M65.0228 28.1944C64.2293 27.7731 63.3243 27.5334 62.3632 27.5334C59.2259 27.5334 56.6825 30.0769 56.6825 33.2142V56.1958H62.0019V33.214C62.0017 31.0379 63.2259 29.1483 65.0228 28.1944Z" fill="#FFCBBE"/>
<path d="M68.0568 56.1946H79.4181V26.6807C79.4183 23.5434 76.8749 21 73.7375 21C70.6002 21 68.0568 23.5434 68.0568 26.6807V56.1946Z" fill="#FFDDCF"/>
<path d="M76.3973 21.6609C75.6035 21.2396 74.6987 21 73.7375 21C70.6002 21 68.0568 23.5434 68.0568 26.6807V56.1946H73.3761V26.6807C73.3761 24.5045 74.6004 22.6151 76.3973 21.6609Z" fill="#FFCBBE"/>
<path d="M98.8373 49.7322C95.5158 48.5801 91.9099 50.1439 90.438 53.2506C90.441 53.2506 87.4549 60.9501 87.4549 60.9501C84.5036 68.4542 87.1037 74.8614 92.5882 80.6326C95.2834 77.7114 96.8085 74.682 97.2538 73.1389C97.2576 73.1402 103.045 58.424 103.045 58.424C104.286 54.8615 102.401 50.9681 98.8373 49.7322Z" fill="#FFDDCF"/>
<path d="M87.4552 60.9499L90.4414 53.2504H44.7206C41.6925 53.2504 39.2379 55.705 39.2379 58.733V73.8032C39.2379 79.995 42.3833 87.4994 47.1629 90.712V107.247C47.1629 110.275 49.6175 112.729 52.6455 112.729H84.4264C87.4545 112.729 89.9091 110.275 89.9091 107.247V90.6695C91.0039 90.112 92.0088 89.1911 92.9019 88.1719C94.7834 86.0241 94.6722 82.7989 92.6912 80.7426C87.1241 74.9643 85.3588 66.8213 87.4552 60.9499Z" fill="#C16C6C"/>
<path d="M60.7449 107.248V95.618C60.7449 92.9467 59.8319 90.3365 58.0853 88.3152C54.833 84.5512 52.8199 78.7576 52.8199 73.8042V58.734C52.8199 55.7061 55.2745 53.2513 58.3026 53.2513H44.7215C41.6937 53.2513 39.2389 55.7059 39.2389 58.734V73.8044C39.2389 79.9962 42.3843 87.5006 47.1639 90.7132V107.248C47.1639 110.276 49.6185 112.731 52.6465 112.731H66.2276C63.1995 112.73 60.7449 110.275 60.7449 107.248Z" fill="#9E5959"/>
<path d="M47.6725 72.2933H41.527C38.6956 72.2933 36.4 69.998 36.4 67.1663V64.6083C36.4 61.7769 38.6954 59.4813 41.527 59.4813H47.6725C50.504 59.4813 52.7995 61.7767 52.7995 64.6083V67.1665C52.7993 69.998 50.504 72.2933 47.6725 72.2933Z" fill="#FFFFFD"/>
<path d="M42.8303 67.1663V64.6083C42.8303 61.8245 45.0493 59.5606 47.8149 59.485C47.7675 59.4836 47.7204 59.4813 47.6725 59.4813H41.527C38.6956 59.4813 36.4 61.7767 36.4 64.6083V67.1663C36.4 69.998 38.6954 72.2933 41.527 72.2933H47.6725C47.7202 72.2933 47.7675 72.291 47.8149 72.2897C45.0493 72.2141 42.8303 69.9501 42.8303 67.1663Z" fill="#D0D0D0"/>
<path d="M55.6166 102.256H49.4711C46.6397 102.256 44.3441 99.9611 44.3441 97.1294V94.5715C44.3441 91.74 46.6395 89.4445 49.4711 89.4445H55.6166C58.4481 89.4445 60.7436 91.7398 60.7436 94.5715V97.1296C60.7436 99.9609 58.4481 102.256 55.6166 102.256Z" fill="#FFFFFD"/>
<path d="M50.6498 97.1294V94.5715C50.6498 91.767 52.9021 89.4898 55.6962 89.4466C55.6692 89.4462 55.6426 89.4445 55.6156 89.4445H49.4701C46.6387 89.4445 44.3431 91.7398 44.3431 94.5715V97.1294C44.3431 99.9611 46.6385 102.256 49.4701 102.256H55.6156C55.6426 102.256 55.6692 102.255 55.6962 102.254C52.9021 102.211 50.6498 99.9339 50.6498 97.1294Z" fill="#D0D0D0"/>
</svg>
