<svg width="150" height="150" viewBox="0 0 150 150" fill="none" xmlns="http://www.w3.org/2000/svg">
<path d="M74.6104 142.793C112.266 142.793 142.792 112.267 142.792 74.6107C142.792 36.9549 112.266 6.42883 74.6104 6.42883C36.9546 6.42883 6.42859 36.9549 6.42859 74.6107C6.42859 112.267 36.9546 142.793 74.6104 142.793Z" fill="#8F2525"/>
<path opacity="0.1" d="M115.591 42.9295L115.355 42.6831C114.648 41.9546 113.651 41.5045 112.559 41.5045H37.4407C35.2764 41.5045 33.5085 43.2617 33.5085 45.4367V93.3509C33.5085 94.4331 33.9479 95.4188 34.6657 96.1366L81.7656 143.236C116.46 139.838 143.571 110.588 143.571 75.0005C143.571 73.5777 143.514 72.1688 143.429 70.7675L115.591 42.9295Z" fill="black"/>
<path d="M112.557 97.2847H37.4432C35.2721 97.2847 33.512 95.5246 33.512 93.3534V45.4376C33.512 43.2664 35.2721 41.5063 37.4432 41.5063H112.557C114.728 41.5063 116.488 43.2664 116.488 45.4376V93.3534C116.488 95.5246 114.728 97.2847 112.557 97.2847Z" fill="#C16C6C"/>
<path d="M33.512 50.9564H116.488V59.5998H33.512V50.9564Z" fill="#3A556A"/>
<path d="M36.6053 77.7607C36.6053 77.1214 37.1209 76.6058 37.7499 76.6058H46.1951C46.8344 76.6058 47.35 77.1214 47.35 77.7607C47.35 78.3897 46.8344 78.9053 46.1951 78.9053H37.7499C37.1209 78.9053 36.6053 78.3897 36.6053 77.7607Z" fill="#EDEDED"/>
<path d="M51.2992 77.7607C51.2992 77.1214 51.8148 76.6058 52.4438 76.6058H60.8889C61.5282 76.6058 62.0438 77.1214 62.0438 77.7607C62.0438 78.3897 61.5282 78.9053 60.8889 78.9053H52.4438C51.8148 78.9053 51.2992 78.3897 51.2992 77.7607Z" fill="#EDEDED"/>
<path d="M89.3696 86.6705C89.3696 87.2995 88.854 87.8151 88.2147 87.8151H37.7499C37.1209 87.8151 36.6053 87.2995 36.6053 86.6705C36.6053 86.0312 37.1209 85.5156 37.7499 85.5156H88.2147C88.854 85.5156 89.3696 86.0312 89.3696 86.6705Z" fill="#EDEDED"/>
<path d="M100.412 82.9626V73.739C100.412 69.5529 97.3404 66.5146 93.1091 66.5146C88.8779 66.5146 85.8059 69.5529 85.8059 73.739V82.9626H81.908V73.739C81.908 67.5629 86.9322 62.5378 93.1091 62.5378C99.286 62.5378 104.31 67.5629 104.31 73.739V82.9626H100.412Z" fill="#EBF0F3"/>
<path d="M106.718 108.494H79.5007C78.398 108.494 77.5042 107.601 77.5042 106.498V84.0571C77.5042 82.9544 78.398 82.0605 79.5007 82.0605H106.718C107.82 82.0605 108.714 82.9544 108.714 84.0571V106.498C108.714 107.601 107.82 108.494 106.718 108.494Z" fill="#344D5B"/>
<path d="M93.1093 94.0411C91.8272 94.0411 90.7877 95.0806 90.7877 96.3627C90.7877 97.2323 91.2716 97.9812 91.9793 98.379V100.915C91.9793 101.539 92.4853 102.045 93.1092 102.045H93.1093C93.7333 102.045 94.2391 101.539 94.2391 100.915V98.379C94.9469 97.9813 95.4308 97.2324 95.4308 96.3627C95.4308 95.0806 94.3914 94.0411 93.1093 94.0411Z" fill="#19282F"/>
</svg>
