<svg width="140" height="140" viewBox="0 0 140 140" fill="none" xmlns="http://www.w3.org/2000/svg">
<path d="M70 140C108.66 140 140 108.66 140 70C140 31.3401 108.66 0 70 0C31.3401 0 0 31.3401 0 70C0 108.66 31.3401 140 70 140Z" fill="#8F2525"/>
<path fill-rule="evenodd" clip-rule="evenodd" d="M77.7247 85.1817L72.4384 84.502L70.9714 89.5567L74.5472 91.8734L80.3594 98.8715C80.0882 101.552 80.8798 104.328 82.8393 106.688C87.1845 111.925 95.615 113.121 101.671 109.364C107.726 105.606 109.11 98.3162 104.765 93.0796C100.42 87.8431 91.9894 86.6415 85.9337 90.399C85.0536 90.9494 84.2675 91.5717 83.5866 92.2515L77.7247 85.1817ZM89.9137 95.2001C92.9083 93.343 97.0709 93.9365 99.2188 96.5212C101.367 99.1107 100.68 102.71 97.6854 104.568C94.6962 106.42 90.5336 105.831 88.386 103.242C86.2382 100.657 86.9245 97.0573 89.9137 95.2001Z" fill="#D2CFE9"/>
<path fill-rule="evenodd" clip-rule="evenodd" d="M77.4923 89.3939L80.9574 93.5678C82.5572 95.4968 83.393 95.9372 85.4411 94.1039C91.8732 88.3312 100.492 91.4904 103.713 95.3675C106.93 99.2447 106.564 101.806 106.121 104.654C108.014 100.987 107.666 96.5737 104.765 93.0795C100.42 87.843 91.9894 86.6414 85.9337 90.3989C85.0536 90.9493 84.2675 91.5716 83.5866 92.2513L77.7247 85.1814L72.621 84.5256L70.9714 89.5564L73.8942 91.452L77.4923 89.3939Z" fill="#C2BCE0"/>
<path fill-rule="evenodd" clip-rule="evenodd" d="M56.6678 68.6007L63.7808 85.3252L69.3218 82.2092L70.8107 76.8529L63.9634 68.6007L60.2991 67.0833L56.6678 68.6007Z" fill="#D2CFE9"/>
<path fill-rule="evenodd" clip-rule="evenodd" d="M59.718 68.6005L66.0118 76.1874C66.5044 76.781 66.1889 77.0154 65.7018 77.5995L62.2589 81.7496L63.7811 85.3252L69.3221 82.2092L70.8112 76.8528L63.9639 68.6007L60.2995 67.0833L59.718 68.6005Z" fill="#C2BCE0"/>
<path fill-rule="evenodd" clip-rule="evenodd" d="M108.496 28H31.4984C29.572 28 28 29.3594 28 31.0251V65.5705C28 67.2362 29.572 68.6004 31.4984 68.6004H108.496C110.422 68.6004 112 67.2362 112 65.5705V31.0251C112 29.3594 110.422 28 108.496 28V28Z" fill="#3EC3A4"/>
<path fill-rule="evenodd" clip-rule="evenodd" d="M96.7167 34.7014H43.2834C43.2834 37.9707 40.2224 40.6177 36.4417 40.6177V55.983C40.2224 55.983 43.2834 58.6299 43.2834 61.8992H96.7167C96.7167 58.6299 99.7777 55.983 103.558 55.983V40.6178C99.7777 40.6178 96.7167 37.9707 96.7167 34.7014Z" fill="#9BE69D"/>
<path fill-rule="evenodd" clip-rule="evenodd" d="M57.6643 92.6964C56.9834 92.0167 56.1973 91.3944 55.3172 90.844C49.2615 87.0865 40.831 88.2879 36.4858 93.5245C32.1406 98.7612 33.5243 106.051 39.5802 109.809C45.6359 113.566 54.0663 112.37 58.4172 107.133C60.3713 104.773 61.1628 102.002 60.8915 99.3213H60.897L66.7036 92.3184L77.7247 85.1814L90.7534 54.5233C90.9888 53.9695 90.1274 53.5728 89.7298 54.052L57.6643 92.6964ZM52.8651 103.687C50.7172 106.276 46.5546 106.87 43.5657 105.013C40.571 103.155 39.8847 99.5557 42.0323 96.9662C44.1801 94.3814 48.3427 93.7878 51.3374 95.645C54.3263 97.5023 55.0129 101.102 52.8651 103.687Z" fill="#F4EAFA"/>
<path fill-rule="evenodd" clip-rule="evenodd" d="M106.786 31.0251V65.5705C106.786 67.2362 105.208 68.6004 103.282 68.6004H108.496C110.423 68.6004 112 67.2362 112 65.5705V31.0251C112 29.3594 110.422 28 108.496 28H103.282C101.355 28 106.786 29.3594 106.786 31.0251Z" fill="#00A887"/>
<path d="M86.6082 49.6162C86.4262 49.6162 86.2409 49.5865 86.0619 49.5239C85.3129 49.2619 84.9509 48.5233 85.2529 47.8742L85.2752 47.8263C85.5772 47.1771 86.429 46.8628 87.178 47.125C87.927 47.387 88.289 48.1256 87.987 48.7746L87.9646 48.8225C87.7347 49.3163 87.1869 49.6162 86.6082 49.6162Z" fill="#F4EAFA"/>
<path d="M53.3629 49.6162C53.1814 49.6162 52.9969 49.5868 52.8183 49.5245C52.0691 49.2635 51.7056 48.5254 52.0067 47.8758L52.0288 47.8279C52.3299 47.1784 53.1816 46.8631 53.9306 47.1243C54.6798 47.3853 55.0433 48.1234 54.7423 48.7729L54.7201 48.8208C54.491 49.3155 53.9424 49.6162 53.3629 49.6162Z" fill="#F4EAFA"/>
<path fill-rule="evenodd" clip-rule="evenodd" d="M78.516 48.3004C78.516 44.2366 74.7076 40.9434 70.008 40.9434C65.314 40.9434 61.5056 44.2366 61.5056 48.3004C61.5056 52.3642 65.314 55.6527 70.008 55.6527C74.7076 55.6527 78.516 52.3642 78.516 48.3004Z" fill="#F4EAFA"/>
<path fill-rule="evenodd" clip-rule="evenodd" d="M75.3058 82.6495L63.7977 90.0784L57.991 97.0765C58.2622 99.757 57.9246 102.481 54.9023 106.119C51.88 109.761 43.1118 110.881 37.1725 107.894C37.8643 108.603 38.6726 109.244 39.5803 109.809C41.5122 111.01 43.6877 111.705 45.8962 111.925C46.9259 112.025 47.961 112.025 48.9849 111.925C52.6328 111.561 56.1034 109.919 58.4172 107.133C60.3712 104.773 61.1628 102.002 60.8971 99.3214L66.7038 92.3186L70.9716 89.5567L77.7248 85.1817L84.7714 68.6007L87.6165 61.8994L90.7516 54.5259C90.9872 53.972 90.1258 53.5752 89.728 54.0544L84.1125 60.8223L75.3058 82.6495Z" fill="#D2CFE9"/>
<path d="M70.8162 84.6496C70.204 84.6496 69.6337 84.3137 69.4293 83.7825C69.174 83.1184 69.5853 82.3932 70.3513 82.1719C71.1173 81.9504 71.9424 82.3022 72.198 82.9663L72.2035 82.9807C72.4588 83.6449 72.0449 84.363 71.2789 84.5843C71.1254 84.6284 70.9695 84.6496 70.8162 84.6496Z" fill="#016A74"/>
</svg>
