<svg width="164" height="91" viewBox="0 0 164 91" fill="none" xmlns="http://www.w3.org/2000/svg">
<path d="M148.081 35.3888L163.552 5.7971C164.945 3.13365 162.92 0 159.806 0H119.005C116.085 0 113.719 2.2634 113.719 5.0555C113.719 7.8476 116.085 10.111 119.005 10.111H129.578C132.498 10.111 134.864 12.3744 134.864 15.1665C134.864 17.9586 132.498 20.222 129.578 20.222H34.4218C31.5021 20.222 29.1354 17.9586 29.1354 15.1665L28.4441 8.92002L50.2811 5.0555C50.2811 2.2634 47.9143 0 44.9947 0H4.19426C1.08051 0 -0.944827 3.13365 0.44789 5.7971L15.9196 35.3888L0.44757 64.9802C-0.944827 67.6436 1.08019 70.7773 4.19394 70.7773H23.8489L29.0008 63.2758L36.5144 70.7773H159.806C162.919 70.7773 164.945 67.6436 163.552 64.9802L148.081 35.3888Z" fill="#C16C6C"/>
<path d="M34.7053 10.1114H44.9953C47.915 10.1114 50.2818 7.84801 50.2818 5.05591H34.4225C28.5832 5.05591 23.8496 9.5827 23.8496 15.1669V70.7774H34.4225V20.2224C31.212 20.2224 28.6697 17.4851 29.2084 14.3178C29.6309 11.832 32.0717 10.1114 34.7053 10.1114Z" fill="#8F2525"/>
<path d="M129.579 20.2227H34.4221L31.8545 28.9464V83.9016C31.8545 86.6937 34.2213 88.9571 37.1409 88.9571H129.579L134.865 85.9442V15.1672C134.865 17.959 132.498 20.2227 129.579 20.2227Z" fill="#DC9D9D"/>
<path d="M34.4223 20.2227C31.5026 20.2227 29.1359 17.9593 29.1359 15.1672V85.9445C29.1359 88.7366 31.5026 91 34.4223 91H129.578C132.498 91 134.865 88.7366 134.865 85.9445H42.3519C37.9726 85.9445 34.4223 82.5493 34.4223 78.3613V20.2227Z" fill="#C16C6C"/>
<path d="M70.654 44.0615C70.3753 44.2135 69.6406 44.5429 68.45 45.0495C68.2473 45.1255 67.9306 45.2522 67.5 45.4295C67.0693 45.6069 66.7146 45.7715 66.436 45.9235V41.2115C69.476 39.6409 71.338 38.5009 72.022 37.7915H77V68.5715H70.654V44.0615ZM81.9275 64.0875L89.2995 52.7635L89.7555 52.0795C90.7182 50.6355 91.4275 49.4322 91.8835 48.4695C92.3395 47.4815 92.5675 46.4555 92.5675 45.3915C92.5675 44.5302 92.3902 43.8842 92.0355 43.4535C91.7062 42.9975 91.2248 42.7695 90.5915 42.7695C89.6288 42.7695 88.9575 43.1495 88.5775 43.9095C88.1975 44.6442 88.0075 45.6702 88.0075 46.9875V48.5075H81.8515V46.8735C81.8515 43.9855 82.5482 41.6802 83.9415 39.9575C85.3602 38.2349 87.5388 37.3735 90.4775 37.3735C93.1882 37.3735 95.2528 38.0829 96.6715 39.5015C98.1155 40.9202 98.8375 42.9215 98.8375 45.5055C98.8375 46.6709 98.6475 47.7729 98.2675 48.8115C97.9128 49.8502 97.4822 50.7875 96.9755 51.6235C96.4688 52.4595 95.6835 53.6502 94.6195 55.1955L88.9955 63.5935H98.0015V68.5715H81.9275V64.0875Z" fill="white"/>
</svg>
