<svg width="156" height="98" viewBox="0 0 156 98" fill="none" xmlns="http://www.w3.org/2000/svg">
<g filter="url(#filter0_d)">
<path d="M144.088 0L74.9524 0.0159959L70.4749 31.9748L74.9524 86.1638L144.088 80.0091V0Z" fill="#8F2525"/>
<path d="M4 0.0168457L4.03761 79.3342C4.03761 85.2153 15.4165 90 29.4027 90L31.6867 89.9812L31.8716 90L74.9523 86.1647V0.0168457H4Z" fill="#CC7272"/>
</g>
<path d="M74.9517 73.6742L70.4741 81.8179L74.9517 89.9839L130.693 89.966C137.635 89.966 144.117 88.794 148.942 86.6661C153.423 84.6901 155.994 82.0276 155.994 79.3614L156 73.6519L74.9517 73.6742Z" fill="#CC7272"/>
<path d="M54.7587 73.6797L54.7529 79.3892C54.7524 82.0554 52.1819 84.718 47.7007 86.6939C42.9983 88.7674 36.1476 89.9402 29.4066 89.9984L74.9522 89.9838V73.6741L54.7587 73.6797Z" fill="#8F2525"/>
<path d="M40.918 54.3749C38.0553 54.3749 36.0287 53.7289 34.838 52.4369C33.6727 51.1196 33.09 49.1183 33.09 46.4329V45.9389H39.018C39.018 47.3069 39.132 48.2569 39.36 48.7889C39.6133 49.3209 40.1453 49.5869 40.956 49.5869C41.5387 49.5869 41.9567 49.4096 42.21 49.0549C42.4887 48.7003 42.6787 48.1049 42.78 47.2689C42.8813 46.4329 42.932 45.1663 42.932 43.4689V40.7329C42.6027 41.2649 42.0833 41.6829 41.374 41.9869C40.6647 42.2909 39.8667 42.4429 38.98 42.4429C36.7507 42.4429 35.104 41.5816 34.04 39.8589C33.0013 38.1363 32.482 35.9196 32.482 33.2089C32.482 29.8396 33.1407 27.2556 34.458 25.4569C35.8007 23.6329 37.954 22.7209 40.918 22.7209C43.8313 22.7209 45.972 23.5823 47.34 25.3049C48.708 27.0023 49.392 29.3963 49.392 32.4869V43.9629C49.392 47.2816 48.7713 49.8529 47.53 51.6769C46.2887 53.4756 44.0847 54.3749 40.918 54.3749ZM40.994 37.5789C41.754 37.5789 42.4 37.1736 42.932 36.3629V31.3469C42.932 30.1309 42.7927 29.1683 42.514 28.4589C42.2353 27.7496 41.7033 27.3949 40.918 27.3949C40.1073 27.3949 39.5753 27.8003 39.322 28.6109C39.094 29.3963 38.98 30.7263 38.98 32.6009C38.98 33.8423 39.018 34.7923 39.094 35.4509C39.17 36.0843 39.3473 36.6036 39.626 37.0089C39.9047 37.3889 40.3607 37.5789 40.994 37.5789ZM61.1373 54.4889C58.9586 54.4889 57.2866 54.1089 56.1213 53.3489C54.9559 52.5636 54.1579 51.4869 53.7273 50.1189C53.2966 48.7509 53.0813 47.0156 53.0813 44.9129H59.1993C59.1993 46.7116 59.3386 47.9783 59.6173 48.7129C59.9213 49.4223 60.5039 49.7769 61.3653 49.7769C62.0493 49.7769 62.5433 49.5489 62.8473 49.0929C63.1766 48.6116 63.3793 47.9529 63.4553 47.1169C63.5313 46.2556 63.5693 45.0016 63.5693 43.3549C63.5693 41.6323 63.4046 40.3276 63.0753 39.4409C62.7459 38.5289 62.1126 38.0729 61.1753 38.0729C59.8833 38.0729 59.0726 39.0103 58.7433 40.8849H53.2713L53.8413 23.1389H68.2053V28.4589H58.9333L58.5913 34.8049C58.8699 34.3996 59.4526 34.0576 60.3393 33.7789C61.2513 33.4749 62.1759 33.3229 63.1133 33.3229C65.1906 33.3229 66.7739 34.1843 67.8633 35.9069C68.9779 37.6296 69.5353 40.0616 69.5353 43.2029C69.5353 45.6603 69.3199 47.6996 68.8893 49.3209C68.4586 50.9169 67.6353 52.1836 66.4193 53.1209C65.2033 54.0329 63.4426 54.4889 61.1373 54.4889ZM89.3959 40.6189C86.8372 40.6189 85.0006 39.9603 83.8859 38.6429C82.7712 37.3256 82.2139 35.2609 82.2139 32.4489V31.0809C82.2139 28.2436 82.7459 26.2043 83.8099 24.9629C84.8992 23.7216 86.7612 23.1009 89.3959 23.1009C92.0306 23.1009 93.8926 23.7216 94.9819 24.9629C96.0712 26.1789 96.6159 28.1929 96.6159 31.0049V32.5249C96.6159 35.3116 96.0586 37.3636 94.9439 38.6809C93.8292 39.9729 91.9799 40.6189 89.3959 40.6189ZM102.582 23.1389H106.002L96.5779 53.9189H93.1199L102.582 23.1389ZM89.3959 36.6669C90.0292 36.6669 90.4979 36.5023 90.8019 36.1729C91.1059 35.8436 91.2959 35.3876 91.3719 34.8049C91.4479 34.1969 91.4859 33.3356 91.4859 32.2209V31.2709C91.4859 30.1309 91.4479 29.2949 91.3719 28.7629C91.2959 28.2056 91.1059 27.7876 90.8019 27.5089C90.5232 27.2303 90.0546 27.0909 89.3959 27.0909C88.7372 27.0909 88.2559 27.2303 87.9519 27.5089C87.6732 27.7876 87.4959 28.2056 87.4199 28.7629C87.3439 29.2949 87.3059 30.1183 87.3059 31.2329V32.2589C87.3059 33.8803 87.4326 35.0203 87.6859 35.6789C87.9392 36.3376 88.5092 36.6669 89.3959 36.6669ZM109.764 53.9569C107.205 53.9569 105.369 53.2983 104.254 51.9809C103.165 50.6636 102.62 48.5989 102.62 45.7869V44.4189C102.62 41.5816 103.152 39.5423 104.216 38.3009C105.305 37.0596 107.155 36.4389 109.764 36.4389C112.399 36.4389 114.261 37.0596 115.35 38.3009C116.439 39.5169 116.984 41.5309 116.984 44.3429V45.8249C116.984 48.6116 116.427 50.6636 115.312 51.9809C114.197 53.2983 112.348 53.9569 109.764 53.9569ZM109.764 50.0049C110.397 50.0049 110.866 49.8403 111.17 49.5109C111.474 49.1816 111.664 48.7256 111.74 48.1429C111.816 47.5349 111.854 46.6863 111.854 45.5969V44.5709C111.854 43.4309 111.816 42.5949 111.74 42.0629C111.664 41.5309 111.474 41.1256 111.17 40.8469C110.891 40.5683 110.423 40.4289 109.764 40.4289C109.105 40.4289 108.624 40.5683 108.32 40.8469C108.041 41.1256 107.864 41.5436 107.788 42.1009C107.712 42.6329 107.674 43.4563 107.674 44.5709V45.5969C107.674 47.2183 107.801 48.3583 108.054 49.0169C108.307 49.6756 108.877 50.0049 109.764 50.0049Z" fill="white" fill-opacity="0.88"/>
<defs>
<filter id="filter0_d" x="0" y="0" width="148.088" height="98" filterUnits="userSpaceOnUse" color-interpolation-filters="sRGB">
<feFlood flood-opacity="0" result="BackgroundImageFix"/>
<feColorMatrix in="SourceAlpha" type="matrix" values="0 0 0 0 0 0 0 0 0 0 0 0 0 0 0 0 0 0 127 0" result="hardAlpha"/>
<feOffset dy="4"/>
<feGaussianBlur stdDeviation="2"/>
<feComposite in2="hardAlpha" operator="out"/>
<feColorMatrix type="matrix" values="0 0 0 0 0 0 0 0 0 0 0 0 0 0 0 0 0 0 0.25 0"/>
<feBlend mode="normal" in2="BackgroundImageFix" result="effect1_dropShadow"/>
<feBlend mode="normal" in="SourceGraphic" in2="effect1_dropShadow" result="shape"/>
</filter>
</defs>
</svg>
