<svg width="140" height="140" viewBox="0 0 140 140" fill="none" xmlns="http://www.w3.org/2000/svg">
<path d="M118.792 30.257C109.697 12.5442 91.4264 0.000820313 69.9946 0V27.7071C85.1644 27.7082 97.5005 39.6482 97.5011 54.8185C97.5011 69.8042 85.0621 82.7222 69.9946 82.7233V140C89.3119 119.87 111.544 97.7424 121.272 71.2502C126.136 58.0018 125.229 42.793 118.792 30.257Z" fill="#8F2525"/>
<path d="M18.7284 71.2502C28.4559 97.7424 50.6883 119.87 70.0056 140V82.7233C54.9384 82.7222 42.4991 69.8042 42.4991 54.8185C42.4997 39.6484 54.8358 27.7082 70.0056 27.7071V0C48.5738 0.000820313 30.3027 12.5442 21.2079 30.257C14.7715 42.793 13.8639 58.0018 18.7284 71.2502Z" fill="#CC7272"/>
<path d="M70 98.1021C94.1625 98.1021 113.75 78.5145 113.75 54.3521C113.75 30.1896 94.1625 10.6021 70 10.6021C45.8375 10.6021 26.25 30.1896 26.25 54.3521C26.25 78.5145 45.8375 98.1021 70 98.1021Z" fill="#338AF3"/>
<path d="M94.7281 54.8276H45.272C45.272 58.2415 48.2456 61.0095 51.6598 61.0095H51.4539C51.4539 64.4239 54.2216 67.1914 57.6357 67.1914C57.6357 70.6058 60.4035 73.3733 63.8179 73.3733H76.1819C79.5963 73.3733 82.3641 70.6058 82.3641 67.1914C85.7782 67.1914 88.546 64.4239 88.546 61.0095H88.34C91.7542 61.0098 94.7281 58.2418 94.7281 54.8276Z" fill="#FFDA44"/>
<path d="M87.1191 46.7427C87.1191 56.1973 79.4544 63.8621 69.9997 63.8621C60.5448 63.8621 52.8804 56.1973 52.8804 46.7427" fill="#338AF3"/>
<path d="M83.0765 46.7429L77.7335 49.2564L80.5787 54.4309L74.7766 53.3213L74.0413 59.1819L70.0002 54.8714L65.9588 59.1819L65.2238 53.3213L59.4217 54.4309L62.2665 49.2564L56.9238 46.7429L62.2668 44.2298L59.4217 39.0552L65.2235 40.1651L65.959 34.3037L70.0002 38.6144L74.0416 34.3037L74.7766 40.1651L80.5789 39.0552L77.7338 44.23L83.0765 46.7429Z" fill="#FFDA44"/>
<path d="M69.9804 5.93506C49.8158 5.93506 31.3024 18.9376 24.423 37.8742C17.4933 56.9528 23.5639 78.845 39.1815 91.7608C54.832 104.705 77.5637 106.424 94.9567 95.9028C112.354 85.3782 121.543 64.5447 117.453 44.6133C113.446 25.0932 97.2115 9.60295 77.5117 6.51912C75.0204 6.12893 72.4993 5.93506 69.9804 5.93506ZM108.989 71.9639C100.72 90.2867 80.0782 100.621 60.4599 96.1355C45.362 92.6845 33.0111 80.8876 28.8018 66.0041C24.4955 50.7851 29.1649 34.0655 40.6737 23.2316C53.1244 11.5102 71.8926 8.30986 87.5192 15.3569C106.175 23.7697 116.496 44.9275 111.486 64.8064C110.868 67.2613 110.023 69.6547 108.989 71.9639C108.418 73.2288 109.411 71.0219 108.989 71.9639Z" fill="white"/>
</svg>
