<svg width="140" height="140" viewBox="0 0 140 140" fill="none" xmlns="http://www.w3.org/2000/svg">
<path d="M109.492 22.7941L95.5542 37.4577L89.2424 11.5225C96.73 13.985 103.583 17.8446 109.492 22.7941Z" fill="#8F2525"/>
<path d="M109.493 22.7939C122.974 34.0845 131.549 51.0395 131.549 69.9996L96.5491 78.4502L98.371 29.0067C102.281 27.2715 106 25.1854 109.493 22.7939Z" fill="#8F2525"/>
<path d="M105 70H131.549C131.549 88.9599 122.974 105.915 109.493 117.206L89.9207 113.81L105 70Z" fill="#CC7272"/>
<path d="M98.3711 110.992C102.281 112.728 106 114.813 109.493 117.205C103.583 122.155 96.7302 126.014 89.2424 128.477L98.3711 110.992Z" fill="#3A418A"/>
<path d="M105 70.0004C105 85.3107 102.541 99.4707 98.3715 110.993L70.0001 105L61.5496 61.5498L105 70.0004Z" fill="#8F2525"/>
<path d="M98.3715 110.993C95.8848 117.865 92.789 123.799 89.2428 128.477C83.1883 130.468 76.721 131.549 70.0001 131.549L61.5496 118.275L70.0001 105C80.1001 105 89.6989 107.143 98.3715 110.993Z" fill="#CC7272"/>
<path d="M98.3715 29.0077L61.5496 26.5498L70.0001 70.0004H105C105 54.6901 102.541 40.5301 98.3715 29.0077Z" fill="#601A1A"/>
<path d="M70 34.9996V8.4502C76.7208 8.4502 83.1882 9.53137 89.2426 11.5223C92.7888 16.2002 95.8844 22.1341 98.3713 29.0067C89.6987 32.8567 80.1 34.9996 70 34.9996Z" fill="#8F2525"/>
<path d="M30.5073 22.7941L44.4455 37.4577L50.7573 11.5225C43.2697 13.985 36.4171 17.8446 30.5073 22.7941Z" fill="white"/>
<path d="M30.5073 22.7939C17.026 34.0845 8.45044 51.0398 8.45044 69.9996L43.4504 78.4502L41.6285 29.0067C37.7189 27.2715 34.0002 25.1854 30.5073 22.7939Z" fill="#C16C6C"/>
<path d="M34.9999 70H8.45044C8.45044 88.9599 17.026 105.915 30.507 117.206L50.0791 113.81L34.9999 70Z" fill="#8F2525"/>
<path d="M41.6286 110.993C37.719 112.729 34.0002 114.814 30.5071 117.206C36.4169 122.156 43.2695 126.015 50.7573 128.478L41.6286 110.993Z" fill="#8F2525"/>
<path d="M52.5 64.3662L35 70.0001C35 85.3104 37.4596 99.4704 41.6287 110.993L70 105V70.0001L52.5 64.3662Z" fill="#601A1A"/>
<path d="M41.6287 110.993C44.1153 117.865 47.2112 123.799 50.7574 128.477C56.8118 130.468 63.2792 131.549 70 131.549V105C59.9 105 50.3013 107.143 41.6287 110.993Z" fill="#8F2525"/>
<path d="M41.6287 29.0078C37.4596 40.5302 35 54.6899 35 70.0005H70V35.0005L41.6287 29.0078Z" fill="#8F2525"/>
<path d="M70 34.9996V8.4502C63.2792 8.4502 56.8118 9.53137 50.7574 11.5223C47.2112 16.2002 44.1156 22.1341 41.6287 29.0067C50.3013 32.8567 59.9 34.9996 70 34.9996Z" fill="#C16C6C"/>
<path d="M115.016 24.9841C102.992 12.96 87.0049 6.33789 70.0001 6.33789C52.9953 6.33789 37.0085 12.96 24.9844 24.9841C12.9602 37.0083 6.33813 52.9953 6.33813 69.9999C6.33813 87.0044 12.96 102.991 24.9844 115.016C37.0088 127.04 52.9953 133.662 70.0001 133.662C87.0049 133.662 102.992 127.04 115.016 115.016C127.04 102.991 133.662 87.0044 133.662 69.9999C133.662 52.9953 127.04 37.0083 115.016 24.9841ZM129.395 67.8873H107.096C106.894 54.2217 104.738 41.185 100.996 30.1226C103.852 28.7592 106.627 27.2025 109.306 25.4566C121.15 35.92 128.803 51.0198 129.395 67.8873ZM87.9507 126.663C82.9255 128.259 77.6129 129.202 72.1127 129.395V107.147C80.2797 107.397 88.2409 109.095 95.6931 112.148C93.5365 117.696 90.9364 122.606 87.9507 126.663ZM99.5428 113.866C101.704 114.913 103.814 116.08 105.867 117.362C102.414 119.983 98.6676 122.237 94.6847 124.063C96.4815 120.962 98.1048 117.543 99.5428 113.866ZM52.0495 126.663C49.0638 122.606 46.464 117.696 44.3066 112.148C51.7588 109.095 59.7202 107.397 67.887 107.147V129.395C62.3871 129.202 57.0747 128.259 52.0495 126.663ZM45.3156 124.062C41.3329 122.237 37.5863 119.983 34.1331 117.361C36.1863 116.08 38.2964 114.913 40.4574 113.865C41.8954 117.543 43.5188 120.962 45.3156 124.062ZM52.0495 13.3362C57.0747 11.7407 62.3873 10.7982 67.8875 10.6049V32.8523C59.7205 32.6024 51.7594 30.9046 44.3071 27.852C46.4637 22.3034 49.0638 17.3938 52.0495 13.3362ZM40.4574 26.1342C38.2964 25.087 36.1863 23.9196 34.1331 22.6378C37.5863 20.0163 41.3327 17.7627 45.3156 15.9369C43.5188 19.0377 41.8954 22.4565 40.4574 26.1342ZM87.9507 13.3362C90.9364 17.3938 93.5362 22.3034 95.6937 27.852C88.2414 30.9046 80.2803 32.6024 72.1132 32.8523V10.6049C77.6132 10.7979 82.9255 11.7405 87.9507 13.3362ZM94.6847 15.9375C98.6673 17.7632 102.414 20.0166 105.867 22.638C103.814 23.9196 101.704 25.0867 99.5428 26.1345C98.1048 22.4565 96.4815 19.0377 94.6847 15.9375ZM67.8875 37.0791V67.8873H37.1291C37.3265 54.8025 39.3546 42.3605 42.8699 31.8294C50.7802 35.0466 59.2259 36.8295 67.8875 37.0791ZM67.8875 72.1125V102.921C59.2259 103.17 50.7802 104.953 42.8702 108.17C39.3546 97.6392 37.3265 85.1973 37.1291 72.1125H67.8875ZM72.1127 102.921V72.1125H102.871C102.674 85.1973 100.646 97.6392 97.1303 108.17C89.22 104.953 80.7744 103.17 72.1127 102.921ZM72.1127 67.8873V37.0791C80.7744 36.8295 89.22 35.0466 97.13 31.8294C100.646 42.3605 102.674 54.8025 102.871 67.8873H72.1127ZM30.6946 25.4564C33.3732 27.2023 36.1483 28.7589 39.0041 30.1223C35.2621 41.1848 33.1057 54.2214 32.904 67.887H10.6051C11.1977 51.0198 18.8506 35.92 30.6946 25.4564ZM10.6051 72.1125H32.904C33.1057 85.778 35.2621 98.8147 39.0041 109.877C36.1483 111.241 33.3732 112.797 30.6946 114.543C18.8506 104.08 11.1977 88.98 10.6051 72.1125ZM109.306 114.543C106.627 112.797 103.852 111.241 100.996 109.877C104.738 98.8147 106.894 85.778 107.096 72.1125H129.395C128.803 88.98 121.15 104.08 109.306 114.543Z" fill="white"/>
</svg>
