<svg width="140" height="140" viewBox="0 0 140 140" fill="none" xmlns="http://www.w3.org/2000/svg">
<path d="M103.786 51.7837C103.786 59.3099 102.178 66.459 99.2822 72.9105L86.6748 72.0641L71.9193 86.7881L72.7584 99.2103C66.3724 102.008 59.315 103.564 51.8945 103.564C23.2348 103.564 0 80.3821 0 51.7837C0 23.1852 23.2348 0 51.8945 0C80.5541 0 103.786 23.1852 103.786 51.7837Z" fill="#8F2525"/>
<path d="M51.8935 90.6636C73.4126 90.6636 90.8573 73.2561 90.8573 51.7829C90.8573 30.3098 73.4126 12.9023 51.8935 12.9023C30.3744 12.9023 12.9297 30.3098 12.9297 51.7829C12.9297 73.2561 30.3744 90.6636 51.8935 90.6636Z" fill="#CC7272"/>
<path d="M86.674 72.0645L79.2965 79.4262L71.9191 86.7879L73.4423 109.339L101.516 137.353C105.053 140.882 110.788 140.882 114.325 137.353L125.836 125.866L137.347 114.379C140.884 110.85 140.884 105.127 137.347 101.598L109.274 73.5842L86.674 72.0645Z" fill="#C16C6C"/>
<path d="M57.3573 30.2609H54.7465V26.243C54.7465 24.6706 53.4689 23.396 51.8934 23.396C50.3179 23.396 49.0403 24.6706 49.0403 26.243V30.2609H46.4295C40.3605 30.2609 35.4227 35.1882 35.4227 41.2446V43.9361C35.4227 49.9925 40.3605 54.9197 46.4295 54.9197H57.3576C60.2806 54.9197 62.6586 57.2927 62.6586 60.2094V62.3213C62.6586 65.238 60.2806 67.611 57.3576 67.611H46.4292C43.5065 67.611 41.1285 65.238 41.1285 62.3213C41.1285 60.7489 39.8509 59.4743 38.2754 59.4743C36.7 59.4743 35.4224 60.7489 35.4224 62.3213C35.4224 68.3777 40.3602 73.3049 46.4292 73.3049H49.0401V77.3232C49.0401 78.8955 50.3177 80.1701 51.8931 80.1701C53.4686 80.1701 54.7462 78.8955 54.7462 77.3232V73.3049H57.357C63.4264 73.3049 68.3642 68.3777 68.3642 62.3213V60.2094C68.3642 54.153 63.4264 49.2258 57.357 49.2258H46.4292C43.5065 49.2258 41.1285 46.8528 41.1285 43.9361V41.2446C41.1285 38.3278 43.5065 35.9549 46.4292 35.9549H57.3573C60.2803 35.9549 62.6583 38.3278 62.6583 41.2446V41.5005C62.6583 43.0729 63.9359 44.3475 65.5114 44.3475C67.0869 44.3475 68.3645 43.0729 68.3645 41.5005V41.2446C68.3645 35.1879 63.4269 30.2609 57.3573 30.2609Z" fill="white"/>
<path d="M104.899 103.149C109.263 98.7944 109.263 91.7079 104.899 87.3529C100.585 83.0483 93.3833 83.0472 89.0692 87.3529L87.5453 88.8732C83.181 93.2282 83.181 100.315 87.5453 104.669C91.868 108.966 99.0549 108.981 103.375 104.669L104.899 103.149ZM100.864 99.1232L99.3405 100.643C97.2187 102.761 93.704 102.743 91.5802 100.643C89.4406 98.5082 89.4406 95.0344 91.5799 92.8994L93.1037 91.3791C95.2187 89.2689 98.7491 89.2689 100.864 91.3791C103.004 93.5144 103.004 96.9882 100.864 99.1232Z" fill="white"/>
<path d="M111.609 105.222C112.199 106.658 113.903 107.352 115.335 106.762C116.773 106.17 117.474 104.478 116.879 103.044C116.284 101.611 114.588 100.911 113.152 101.504C111.72 102.096 111.012 103.792 111.609 105.222Z" fill="white"/>
<path d="M116.454 120.894C115.986 119.775 114.822 119.055 113.609 119.145C112.417 119.233 111.392 120.079 111.071 121.225C110.382 123.688 113.2 125.747 115.349 124.385C116.507 123.651 116.972 122.157 116.454 120.894Z" fill="white"/>
<path d="M123.107 110.128H104.792C103.217 110.128 101.939 111.403 101.939 112.975C101.939 114.548 103.217 115.822 104.792 115.822H123.107C124.682 115.822 125.96 114.548 125.96 112.975C125.96 111.403 124.682 110.128 123.107 110.128Z" fill="white"/>
</svg>
