<svg width="1083" height="323" viewBox="0 0 1083 323" fill="none" xmlns="http://www.w3.org/2000/svg">
<path d="M1.20455 302.26C0.243652 303.252 0.268437 304.835 1.25994 305.795L17.4173 321.454C18.4088 322.415 19.9915 322.39 20.9524 321.399C21.9132 320.407 21.8884 318.824 20.8969 317.864L6.53498 303.945L20.4537 289.583C21.4146 288.591 21.3897 287.009 20.3983 286.048C19.4068 285.087 17.8241 285.112 16.8632 286.103L1.20455 302.26ZM979.5 5.00011C1018.33 5.00015 1055.72 22.3755 1070.64 48.0535C1078.04 60.7744 1079.99 75.6158 1073.85 91.733C1067.67 107.945 1053.22 125.647 1027.38 143.701C975.675 179.823 879.155 216.808 715.6 245.992C552.112 275.164 321.881 296.502 2.96061 301.5L3.03903 306.5C322.119 301.499 552.638 280.149 716.478 250.914C880.251 221.692 977.637 184.552 1030.24 147.8C1056.56 129.416 1071.86 110.993 1078.52 93.5134C1085.22 75.9392 1083.09 59.5228 1074.97 45.5406C1058.85 17.8123 1019.42 0.000143463 979.5 0.000100071L979.5 5.00011Z" fill="#8F2525"/>
</svg>
