<svg width="884" height="57" viewBox="0 0 884 57" fill="none" xmlns="http://www.w3.org/2000/svg">
<path d="M882.976 18.011C883.822 16.9199 883.623 15.3495 882.532 14.5035L864.75 0.717312C863.659 -0.128677 862.089 0.0700874 861.243 1.16127C860.397 2.25244 860.595 3.82283 861.687 4.66882L877.493 16.9232L865.238 32.7292C864.392 33.8204 864.591 35.3908 865.682 36.2368C866.773 37.0828 868.344 36.884 869.19 35.7928L882.976 18.011ZM0.581989 18.9458C335.492 74.2779 530.217 63.3981 881.314 18.9595L880.686 13.999C529.855 58.404 335.656 69.2372 1.39701 14.0127L0.581989 18.9458Z" fill="#8F2525"/>
</svg>
