<svg width="1440" height="418" viewBox="0 0 1440 418" fill="none" xmlns="http://www.w3.org/2000/svg">
<path opacity="0.0344828" d="M52.7791 127.021C641.663 -193.61 997.972 541.021 1603.65 255.888" stroke="url(#paint0_linear)" stroke-opacity="0.2" stroke-width="5"/>
<path opacity="0.0689655" d="M48.0547 131.315C633.084 -180.767 988.471 536.867 1590.25 259.462" stroke="url(#paint1_linear)" stroke-opacity="0.2" stroke-width="5"/>
<path opacity="0.103448" d="M43.3324 135.608C624.507 -167.925 978.973 532.712 1576.86 263.034" stroke="url(#paint2_linear)" stroke-opacity="0.2" stroke-width="5"/>
<path opacity="0.137931" d="M38.608 139.901C615.928 -155.082 969.472 528.557 1563.46 266.607" stroke="url(#paint3_linear)" stroke-opacity="0.2" stroke-width="5"/>
<path opacity="0.172414" d="M33.885 144.194C607.35 -142.24 959.973 524.402 1550.06 270.179" stroke="url(#paint4_linear)" stroke-opacity="0.2" stroke-width="5"/>
<path opacity="0.206897" d="M29.161 148.488C598.771 -129.398 950.472 520.247 1536.66 273.751" stroke="url(#paint5_linear)" stroke-opacity="0.2" stroke-width="5"/>
<path opacity="0.241379" d="M24.4373 152.78C590.193 -116.556 940.972 516.092 1523.27 277.323" stroke="url(#paint6_linear)" stroke-opacity="0.2" stroke-width="5"/>
<path opacity="0.275862" d="M19.7155 157.074C581.617 -103.713 931.474 511.938 1509.87 280.897" stroke="url(#paint7_linear)" stroke-opacity="0.2" stroke-width="5"/>
<path opacity="0.310345" d="M14.9923 161.367C573.039 -90.8708 921.975 507.783 1496.48 284.469" stroke="url(#paint8_linear)" stroke-opacity="0.2" stroke-width="5"/>
<path opacity="0.344828" d="M10.2698 165.66C564.462 -78.028 912.476 503.628 1483.08 288.041" stroke="url(#paint9_linear)" stroke-opacity="0.2" stroke-width="5"/>
<path opacity="0.37931" d="M5.54656 169.953C555.884 -65.1862 902.976 499.473 1469.68 291.613" stroke="url(#paint10_linear)" stroke-opacity="0.2" stroke-width="5"/>
<path opacity="0.413793" d="M0.82138 174.247C547.304 -52.3424 893.475 495.32 1456.29 295.187" stroke="url(#paint11_linear)" stroke-opacity="0.2" stroke-width="5"/>
<path opacity="0.448276" d="M-3.90063 178.54C538.727 -39.5006 883.976 491.164 1442.89 298.759" stroke="url(#paint12_linear)" stroke-opacity="0.2" stroke-width="5"/>
<path opacity="0.482759" d="M-8.62386 182.833C530.149 -26.6583 874.477 487.01 1429.49 302.331" stroke="url(#paint13_linear)" stroke-opacity="0.2" stroke-width="5"/>
<path opacity="0.517241" d="M-13.3495 187.126C521.569 -13.8161 864.975 482.855 1416.1 305.904" stroke="url(#paint14_linear)" stroke-opacity="0.2" stroke-width="5"/>
<path opacity="0.551724" d="M-18.0706 191.42C512.993 -0.972736 855.477 478.701 1402.7 309.477" stroke="url(#paint15_linear)" stroke-opacity="0.2" stroke-width="5"/>
<path opacity="0.586207" d="M-22.795 195.712C504.414 11.8681 845.976 474.544 1389.3 313.048" stroke="url(#paint16_linear)" stroke-opacity="0.2" stroke-width="5"/>
<path opacity="0.62069" d="M-27.5151 200.006C495.839 24.7114 836.48 470.391 1375.91 316.622" stroke="url(#paint17_linear)" stroke-opacity="0.2" stroke-width="5"/>
<path opacity="0.655172" d="M-32.2407 204.3C487.259 37.5551 826.978 466.237 1362.51 320.195" stroke="url(#paint18_linear)" stroke-opacity="0.2" stroke-width="5"/>
<path opacity="0.689655" d="M-36.9632 208.593C478.682 50.3974 817.479 462.082 1349.12 323.768" stroke="url(#paint19_linear)" stroke-opacity="0.2" stroke-width="5"/>
<path opacity="0.724138" d="M-41.6879 212.886C470.102 63.2392 807.978 457.927 1335.72 327.34" stroke="url(#paint20_linear)" stroke-opacity="0.2" stroke-width="5"/>
<path opacity="0.758621" d="M-46.4116 217.179C461.524 76.081 798.478 453.772 1322.32 330.912" stroke="url(#paint21_linear)" stroke-opacity="0.2" stroke-width="5"/>
<path opacity="0.793103" d="M-51.1332 221.472C452.948 88.9233 788.98 449.617 1308.93 334.484" stroke="url(#paint22_linear)" stroke-opacity="0.2" stroke-width="5"/>
<path opacity="0.827586" d="M-55.8552 225.766C444.371 101.767 779.482 445.463 1295.53 338.057" stroke="url(#paint23_linear)" stroke-opacity="0.2" stroke-width="5"/>
<path opacity="0.862069" d="M-60.5811 230.059C435.79 114.609 769.98 441.309 1282.13 341.63" stroke="url(#paint24_linear)" stroke-opacity="0.2" stroke-width="5"/>
<path opacity="0.896552" d="M-65.3036 234.353C427.213 127.453 760.481 437.155 1268.74 345.204" stroke="url(#paint25_linear)" stroke-opacity="0.2" stroke-width="5"/>
<path opacity="0.931035" d="M-70.0256 238.646C418.637 140.294 750.982 432.999 1255.34 348.775" stroke="url(#paint26_linear)" stroke-opacity="0.2" stroke-width="5"/>
<path opacity="0.965517" d="M-74.7469 242.939C410.061 153.137 741.485 428.845 1241.95 352.348" stroke="url(#paint27_linear)" stroke-opacity="0.2" stroke-width="5"/>
<path d="M-79.473 247.232C401.48 165.979 731.982 424.689 1228.55 355.92" stroke="url(#paint28_linear)" stroke-opacity="0.2" stroke-width="5"/>
<defs>
<linearGradient id="paint0_linear" x1="96.6537" y1="123.212" x2="1604.2" y2="248.48" gradientUnits="userSpaceOnUse">
<stop stop-color="white"/>
<stop offset="1" stop-color="white"/>
</linearGradient>
<linearGradient id="paint1_linear" x1="91.6726" y1="127.664" x2="1590.78" y2="252.231" gradientUnits="userSpaceOnUse">
<stop stop-color="white"/>
<stop offset="1" stop-color="white"/>
</linearGradient>
<linearGradient id="paint2_linear" x1="86.6936" y1="132.115" x2="1577.37" y2="255.981" gradientUnits="userSpaceOnUse">
<stop stop-color="white"/>
<stop offset="1" stop-color="white"/>
</linearGradient>
<linearGradient id="paint3_linear" x1="81.7125" y1="136.565" x2="1563.96" y2="259.731" gradientUnits="userSpaceOnUse">
<stop stop-color="white"/>
<stop offset="1" stop-color="white"/>
</linearGradient>
<linearGradient id="paint4_linear" x1="76.7328" y1="141.016" x2="1550.55" y2="263.481" gradientUnits="userSpaceOnUse">
<stop stop-color="white"/>
<stop offset="1" stop-color="white"/>
</linearGradient>
<linearGradient id="paint5_linear" x1="71.7522" y1="145.467" x2="1537.14" y2="267.231" gradientUnits="userSpaceOnUse">
<stop stop-color="white"/>
<stop offset="1" stop-color="white"/>
</linearGradient>
<linearGradient id="paint6_linear" x1="66.7718" y1="149.916" x2="1523.73" y2="270.98" gradientUnits="userSpaceOnUse">
<stop stop-color="white"/>
<stop offset="1" stop-color="white"/>
</linearGradient>
<linearGradient id="paint7_linear" x1="61.7933" y1="154.368" x2="1510.32" y2="274.732" gradientUnits="userSpaceOnUse">
<stop stop-color="white"/>
<stop offset="1" stop-color="white"/>
</linearGradient>
<linearGradient id="paint8_linear" x1="56.8134" y1="158.819" x2="1496.91" y2="278.481" gradientUnits="userSpaceOnUse">
<stop stop-color="white"/>
<stop offset="1" stop-color="white"/>
</linearGradient>
<linearGradient id="paint9_linear" x1="51.8342" y1="163.27" x2="1483.5" y2="282.232" gradientUnits="userSpaceOnUse">
<stop stop-color="white"/>
<stop offset="1" stop-color="white"/>
</linearGradient>
<linearGradient id="paint10_linear" x1="46.8543" y1="167.72" x2="1470.09" y2="285.982" gradientUnits="userSpaceOnUse">
<stop stop-color="white"/>
<stop offset="1" stop-color="white"/>
</linearGradient>
<linearGradient id="paint11_linear" x1="41.8724" y1="172.172" x2="1456.68" y2="289.733" gradientUnits="userSpaceOnUse">
<stop stop-color="white"/>
<stop offset="1" stop-color="white"/>
</linearGradient>
<linearGradient id="paint12_linear" x1="36.8937" y1="176.622" x2="1443.27" y2="293.483" gradientUnits="userSpaceOnUse">
<stop stop-color="white"/>
<stop offset="1" stop-color="white"/>
</linearGradient>
<linearGradient id="paint13_linear" x1="31.9138" y1="181.073" x2="1429.86" y2="297.233" gradientUnits="userSpaceOnUse">
<stop stop-color="white"/>
<stop offset="1" stop-color="white"/>
</linearGradient>
<linearGradient id="paint14_linear" x1="26.9314" y1="185.523" x2="1416.44" y2="300.983" gradientUnits="userSpaceOnUse">
<stop stop-color="white"/>
<stop offset="1" stop-color="white"/>
</linearGradient>
<linearGradient id="paint15_linear" x1="21.9537" y1="189.975" x2="1403.03" y2="304.734" gradientUnits="userSpaceOnUse">
<stop stop-color="white"/>
<stop offset="1" stop-color="white"/>
</linearGradient>
<linearGradient id="paint16_linear" x1="16.9726" y1="194.424" x2="1389.62" y2="308.483" gradientUnits="userSpaceOnUse">
<stop stop-color="white"/>
<stop offset="1" stop-color="white"/>
</linearGradient>
<linearGradient id="paint17_linear" x1="11.9958" y1="198.876" x2="1376.21" y2="312.234" gradientUnits="userSpaceOnUse">
<stop stop-color="white"/>
<stop offset="1" stop-color="white"/>
</linearGradient>
<linearGradient id="paint18_linear" x1="7.01348" y1="203.328" x2="1362.8" y2="315.985" gradientUnits="userSpaceOnUse">
<stop stop-color="white"/>
<stop offset="1" stop-color="white"/>
</linearGradient>
<linearGradient id="paint19_linear" x1="2.03428" y1="207.779" x2="1349.39" y2="319.735" gradientUnits="userSpaceOnUse">
<stop stop-color="white"/>
<stop offset="1" stop-color="white"/>
</linearGradient>
<linearGradient id="paint20_linear" x1="-2.94709" y1="212.229" x2="1335.98" y2="323.485" gradientUnits="userSpaceOnUse">
<stop stop-color="white"/>
<stop offset="1" stop-color="white"/>
</linearGradient>
<linearGradient id="paint21_linear" x1="-7.9275" y1="216.679" x2="1322.57" y2="327.235" gradientUnits="userSpaceOnUse">
<stop stop-color="white"/>
<stop offset="1" stop-color="white"/>
</linearGradient>
<linearGradient id="paint22_linear" x1="-12.9057" y1="221.13" x2="1309.16" y2="330.985" gradientUnits="userSpaceOnUse">
<stop stop-color="white"/>
<stop offset="1" stop-color="white"/>
</linearGradient>
<linearGradient id="paint23_linear" x1="-17.8844" y1="225.581" x2="1295.75" y2="334.736" gradientUnits="userSpaceOnUse">
<stop stop-color="white"/>
<stop offset="1" stop-color="white"/>
</linearGradient>
<linearGradient id="paint24_linear" x1="-22.867" y1="230.032" x2="1282.34" y2="338.486" gradientUnits="userSpaceOnUse">
<stop stop-color="white"/>
<stop offset="1" stop-color="white"/>
</linearGradient>
<linearGradient id="paint25_linear" x1="-27.8462" y1="234.484" x2="1268.93" y2="342.237" gradientUnits="userSpaceOnUse">
<stop stop-color="white"/>
<stop offset="1" stop-color="white"/>
</linearGradient>
<linearGradient id="paint26_linear" x1="-32.8249" y1="238.934" x2="1255.52" y2="345.987" gradientUnits="userSpaceOnUse">
<stop stop-color="white"/>
<stop offset="1" stop-color="white"/>
</linearGradient>
<linearGradient id="paint27_linear" x1="-37.8029" y1="243.385" x2="1242.11" y2="349.737" gradientUnits="userSpaceOnUse">
<stop stop-color="white"/>
<stop offset="1" stop-color="white"/>
</linearGradient>
<linearGradient id="paint28_linear" x1="-42.7857" y1="247.835" x2="1228.69" y2="353.487" gradientUnits="userSpaceOnUse">
<stop stop-color="white"/>
<stop offset="1" stop-color="white"/>
</linearGradient>
</defs>
</svg>
