<svg width="1440" height="1220" viewBox="0 0 1440 1220" fill="none" xmlns="http://www.w3.org/2000/svg">
<path opacity="0.0344828" d="M1499.26 326.28C1068.87 1245.71 104.715 132.655 -371.784 998.054" stroke="url(#paint0_linear)" stroke-opacity="0.15" stroke-width="5"/>
<path opacity="0.0689655" d="M1501.41 315.81C1068.94 1217.63 118.726 134.589 -359.173 983.828" stroke="url(#paint1_linear)" stroke-opacity="0.15" stroke-width="5"/>
<path opacity="0.103448" d="M1503.56 305.34C1069.02 1189.55 132.738 136.524 -346.561 969.601" stroke="url(#paint2_linear)" stroke-opacity="0.15" stroke-width="5"/>
<path opacity="0.137931" d="M1505.71 294.871C1069.1 1161.46 146.749 138.459 -333.949 955.375" stroke="url(#paint3_linear)" stroke-opacity="0.15" stroke-width="5"/>
<path opacity="0.172414" d="M1507.85 284.402C1069.17 1133.38 160.761 140.394 -321.338 941.15" stroke="url(#paint4_linear)" stroke-opacity="0.15" stroke-width="5"/>
<path opacity="0.206897" d="M1510 273.933C1069.25 1105.3 174.772 142.329 -308.727 926.923" stroke="url(#paint5_linear)" stroke-opacity="0.15" stroke-width="5"/>
<path opacity="0.241379" d="M1512.15 263.464C1069.33 1077.21 188.785 144.264 -296.114 912.697" stroke="url(#paint6_linear)" stroke-opacity="0.15" stroke-width="5"/>
<path opacity="0.275862" d="M1514.29 252.994C1069.4 1049.13 202.793 146.198 -283.506 898.471" stroke="url(#paint7_linear)" stroke-opacity="0.15" stroke-width="5"/>
<path opacity="0.310345" d="M1516.44 242.527C1069.48 1021.05 216.805 148.135 -270.894 884.247" stroke="url(#paint8_linear)" stroke-opacity="0.15" stroke-width="5"/>
<path opacity="0.344828" d="M1518.59 232.057C1069.55 992.963 230.815 150.069 -258.284 870.02" stroke="url(#paint9_linear)" stroke-opacity="0.15" stroke-width="5"/>
<path opacity="0.37931" d="M1520.74 221.588C1069.63 964.88 244.827 152.005 -245.672 855.794" stroke="url(#paint10_linear)" stroke-opacity="0.15" stroke-width="5"/>
<path opacity="0.413793" d="M1522.89 211.117C1069.71 936.795 258.839 153.938 -233.06 841.566" stroke="url(#paint11_linear)" stroke-opacity="0.15" stroke-width="5"/>
<path opacity="0.448276" d="M1525.03 200.649C1069.79 908.713 272.849 155.874 -220.45 827.342" stroke="url(#paint12_linear)" stroke-opacity="0.15" stroke-width="5"/>
<path opacity="0.482759" d="M1527.18 190.179C1069.86 880.629 286.86 157.808 -207.839 813.115" stroke="url(#paint13_linear)" stroke-opacity="0.15" stroke-width="5"/>
<path opacity="0.517241" d="M1529.33 179.709C1069.94 852.545 300.873 159.742 -195.225 798.888" stroke="url(#paint14_linear)" stroke-opacity="0.15" stroke-width="5"/>
<path opacity="0.551724" d="M1531.48 169.24C1070.01 824.462 314.882 161.678 -182.616 784.662" stroke="url(#paint15_linear)" stroke-opacity="0.15" stroke-width="5"/>
<path opacity="0.586207" d="M1533.62 158.772C1070.09 796.379 328.895 163.613 -170.004 770.437" stroke="url(#paint16_linear)" stroke-opacity="0.15" stroke-width="5"/>
<path opacity="0.62069" d="M1535.77 148.304C1070.16 768.297 342.901 165.549 -157.398 756.212" stroke="url(#paint17_linear)" stroke-opacity="0.15" stroke-width="5"/>
<path opacity="0.655172" d="M1537.92 137.832C1070.24 740.211 356.915 167.482 -144.784 741.984" stroke="url(#paint18_linear)" stroke-opacity="0.15" stroke-width="5"/>
<path opacity="0.689655" d="M1540.06 127.363C1070.32 712.127 370.926 169.417 -132.173 727.757" stroke="url(#paint19_linear)" stroke-opacity="0.15" stroke-width="5"/>
<path opacity="0.724138" d="M1542.21 116.894C1070.4 684.044 384.94 171.352 -119.559 713.531" stroke="url(#paint20_linear)" stroke-opacity="0.15" stroke-width="5"/>
<path opacity="0.758621" d="M1544.36 106.425C1070.47 655.962 398.951 173.287 -106.948 699.306" stroke="url(#paint21_linear)" stroke-opacity="0.15" stroke-width="5"/>
<path opacity="0.793103" d="M1546.51 95.9569C1070.55 627.879 412.959 175.223 -94.3396 685.081" stroke="url(#paint22_linear)" stroke-opacity="0.15" stroke-width="5"/>
<path opacity="0.827586" d="M1548.65 85.4877C1070.62 599.796 426.97 177.158 -81.7283 670.855" stroke="url(#paint23_linear)" stroke-opacity="0.15" stroke-width="5"/>
<path opacity="0.862069" d="M1550.8 75.0166C1070.7 571.71 440.984 179.091 -69.1148 656.627" stroke="url(#paint24_linear)" stroke-opacity="0.15" stroke-width="5"/>
<path opacity="0.896552" d="M1552.95 64.5469C1070.78 543.627 454.993 181.026 -56.5055 642.4" stroke="url(#paint25_linear)" stroke-opacity="0.15" stroke-width="5"/>
<path opacity="0.931035" d="M1555.1 54.0789C1070.85 515.544 469.004 182.962 -43.8947 628.175" stroke="url(#paint26_linear)" stroke-opacity="0.15" stroke-width="5"/>
<path opacity="0.965517" d="M1557.24 43.6107C1070.93 487.462 483.013 184.898 -31.2851 613.95" stroke="url(#paint27_linear)" stroke-opacity="0.15" stroke-width="5"/>
<path d="M1559.39 33.141C1071.01 459.378 497.027 186.832 -18.6713 599.724" stroke="url(#paint28_linear)" stroke-opacity="0.15" stroke-width="5"/>
<defs>
<linearGradient id="paint0_linear" x1="1451.98" y1="358.685" x2="-366.796" y2="1011.69" gradientUnits="userSpaceOnUse">
<stop stop-color="#822222" stop-opacity="0.5"/>
<stop offset="1" stop-color="#B63030" stop-opacity="0.5"/>
</linearGradient>
<linearGradient id="paint1_linear" x1="1454.3" y1="347.783" x2="-354.303" y2="997.138" gradientUnits="userSpaceOnUse">
<stop stop-color="#822222" stop-opacity="0.5"/>
<stop offset="1" stop-color="#B63030" stop-opacity="0.5"/>
</linearGradient>
<linearGradient id="paint2_linear" x1="1456.62" y1="336.88" x2="-341.81" y2="982.584" gradientUnits="userSpaceOnUse">
<stop stop-color="#822222" stop-opacity="0.5"/>
<stop offset="1" stop-color="#B63030" stop-opacity="0.5"/>
</linearGradient>
<linearGradient id="paint3_linear" x1="1458.95" y1="325.978" x2="-329.316" y2="968.03" gradientUnits="userSpaceOnUse">
<stop stop-color="#822222" stop-opacity="0.5"/>
<stop offset="1" stop-color="#B63030" stop-opacity="0.5"/>
</linearGradient>
<linearGradient id="paint4_linear" x1="1461.27" y1="315.077" x2="-316.823" y2="953.476" gradientUnits="userSpaceOnUse">
<stop stop-color="#822222" stop-opacity="0.5"/>
<stop offset="1" stop-color="#B63030" stop-opacity="0.5"/>
</linearGradient>
<linearGradient id="paint5_linear" x1="1463.59" y1="304.174" x2="-304.33" y2="938.922" gradientUnits="userSpaceOnUse">
<stop stop-color="#822222" stop-opacity="0.5"/>
<stop offset="1" stop-color="#B63030" stop-opacity="0.5"/>
</linearGradient>
<linearGradient id="paint6_linear" x1="1465.91" y1="293.273" x2="-291.836" y2="924.368" gradientUnits="userSpaceOnUse">
<stop stop-color="#822222" stop-opacity="0.5"/>
<stop offset="1" stop-color="#B63030" stop-opacity="0.5"/>
</linearGradient>
<linearGradient id="paint7_linear" x1="1468.23" y1="282.37" x2="-279.346" y2="909.814" gradientUnits="userSpaceOnUse">
<stop stop-color="#822222" stop-opacity="0.5"/>
<stop offset="1" stop-color="#B63030" stop-opacity="0.5"/>
</linearGradient>
<linearGradient id="paint8_linear" x1="1470.55" y1="271.47" x2="-266.852" y2="895.262" gradientUnits="userSpaceOnUse">
<stop stop-color="#822222" stop-opacity="0.5"/>
<stop offset="1" stop-color="#B63030" stop-opacity="0.5"/>
</linearGradient>
<linearGradient id="paint9_linear" x1="1472.87" y1="260.567" x2="-254.36" y2="880.707" gradientUnits="userSpaceOnUse">
<stop stop-color="#822222" stop-opacity="0.5"/>
<stop offset="1" stop-color="#B63030" stop-opacity="0.5"/>
</linearGradient>
<linearGradient id="paint10_linear" x1="1475.2" y1="249.666" x2="-241.866" y2="866.154" gradientUnits="userSpaceOnUse">
<stop stop-color="#822222" stop-opacity="0.5"/>
<stop offset="1" stop-color="#B63030" stop-opacity="0.5"/>
</linearGradient>
<linearGradient id="paint11_linear" x1="1477.52" y1="238.761" x2="-229.372" y2="851.598" gradientUnits="userSpaceOnUse">
<stop stop-color="#822222" stop-opacity="0.5"/>
<stop offset="1" stop-color="#B63030" stop-opacity="0.5"/>
</linearGradient>
<linearGradient id="paint12_linear" x1="1479.84" y1="227.861" x2="-216.88" y2="837.045" gradientUnits="userSpaceOnUse">
<stop stop-color="#822222" stop-opacity="0.5"/>
<stop offset="1" stop-color="#B63030" stop-opacity="0.5"/>
</linearGradient>
<linearGradient id="paint13_linear" x1="1482.16" y1="216.958" x2="-204.388" y2="822.491" gradientUnits="userSpaceOnUse">
<stop stop-color="#822222" stop-opacity="0.5"/>
<stop offset="1" stop-color="#B63030" stop-opacity="0.5"/>
</linearGradient>
<linearGradient id="paint14_linear" x1="1484.48" y1="206.055" x2="-191.893" y2="807.936" gradientUnits="userSpaceOnUse">
<stop stop-color="#822222" stop-opacity="0.5"/>
<stop offset="1" stop-color="#B63030" stop-opacity="0.5"/>
</linearGradient>
<linearGradient id="paint15_linear" x1="1486.8" y1="195.154" x2="-179.402" y2="793.382" gradientUnits="userSpaceOnUse">
<stop stop-color="#822222" stop-opacity="0.5"/>
<stop offset="1" stop-color="#B63030" stop-opacity="0.5"/>
</linearGradient>
<linearGradient id="paint16_linear" x1="1489.13" y1="184.252" x2="-166.908" y2="778.829" gradientUnits="userSpaceOnUse">
<stop stop-color="#822222" stop-opacity="0.5"/>
<stop offset="1" stop-color="#B63030" stop-opacity="0.5"/>
</linearGradient>
<linearGradient id="paint17_linear" x1="1491.44" y1="173.351" x2="-154.42" y2="764.276" gradientUnits="userSpaceOnUse">
<stop stop-color="#822222" stop-opacity="0.5"/>
<stop offset="1" stop-color="#B63030" stop-opacity="0.5"/>
</linearGradient>
<linearGradient id="paint18_linear" x1="1493.77" y1="162.447" x2="-141.924" y2="749.72" gradientUnits="userSpaceOnUse">
<stop stop-color="#822222" stop-opacity="0.5"/>
<stop offset="1" stop-color="#B63030" stop-opacity="0.5"/>
</linearGradient>
<linearGradient id="paint19_linear" x1="1496.09" y1="151.545" x2="-129.431" y2="735.166" gradientUnits="userSpaceOnUse">
<stop stop-color="#822222" stop-opacity="0.5"/>
<stop offset="1" stop-color="#B63030" stop-opacity="0.5"/>
</linearGradient>
<linearGradient id="paint20_linear" x1="1498.41" y1="140.643" x2="-116.936" y2="720.612" gradientUnits="userSpaceOnUse">
<stop stop-color="#822222" stop-opacity="0.5"/>
<stop offset="1" stop-color="#B63030" stop-opacity="0.5"/>
</linearGradient>
<linearGradient id="paint21_linear" x1="1500.73" y1="129.742" x2="-104.442" y2="706.059" gradientUnits="userSpaceOnUse">
<stop stop-color="#822222" stop-opacity="0.5"/>
<stop offset="1" stop-color="#B63030" stop-opacity="0.5"/>
</linearGradient>
<linearGradient id="paint22_linear" x1="1503.05" y1="118.841" x2="-91.9526" y2="691.506" gradientUnits="userSpaceOnUse">
<stop stop-color="#822222" stop-opacity="0.5"/>
<stop offset="1" stop-color="#B63030" stop-opacity="0.5"/>
</linearGradient>
<linearGradient id="paint23_linear" x1="1505.37" y1="107.939" x2="-79.4596" y2="676.952" gradientUnits="userSpaceOnUse">
<stop stop-color="#822222" stop-opacity="0.5"/>
<stop offset="1" stop-color="#B63030" stop-opacity="0.5"/>
</linearGradient>
<linearGradient id="paint24_linear" x1="1507.7" y1="97.0347" x2="-66.9642" y2="662.396" gradientUnits="userSpaceOnUse">
<stop stop-color="#822222" stop-opacity="0.5"/>
<stop offset="1" stop-color="#B63030" stop-opacity="0.5"/>
</linearGradient>
<linearGradient id="paint25_linear" x1="1510.02" y1="86.1322" x2="-54.4732" y2="647.842" gradientUnits="userSpaceOnUse">
<stop stop-color="#822222" stop-opacity="0.5"/>
<stop offset="1" stop-color="#B63030" stop-opacity="0.5"/>
</linearGradient>
<linearGradient id="paint26_linear" x1="1512.34" y1="75.2314" x2="-41.9806" y2="633.289" gradientUnits="userSpaceOnUse">
<stop stop-color="#822222" stop-opacity="0.5"/>
<stop offset="1" stop-color="#B63030" stop-opacity="0.5"/>
</linearGradient>
<linearGradient id="paint27_linear" x1="1514.66" y1="64.3304" x2="-29.4892" y2="618.736" gradientUnits="userSpaceOnUse">
<stop stop-color="#822222" stop-opacity="0.5"/>
<stop offset="1" stop-color="#B63030" stop-opacity="0.5"/>
</linearGradient>
<linearGradient id="paint28_linear" x1="1516.98" y1="53.4279" x2="-16.9936" y2="604.182" gradientUnits="userSpaceOnUse">
<stop stop-color="#822222" stop-opacity="0.5"/>
<stop offset="1" stop-color="#B63030" stop-opacity="0.5"/>
</linearGradient>
</defs>
</svg>
