<svg width="1440" height="759" viewBox="0 0 1440 759" fill="none" xmlns="http://www.w3.org/2000/svg">
<path opacity="0.0344828" d="M-205.076 176.15C598.16 -148.075 962.897 830.628 1783.21 553.637" stroke="url(#paint0_linear)" stroke-opacity="0.1" stroke-width="5"/>
<path opacity="0.0689655" d="M-211.743 180.929C585.392 -133.012 951.157 824.058 1765.42 556.305" stroke="url(#paint1_linear)" stroke-opacity="0.1" stroke-width="5"/>
<path opacity="0.103448" d="M-218.411 185.708C572.624 -117.95 939.417 817.488 1747.63 558.973" stroke="url(#paint2_linear)" stroke-opacity="0.1" stroke-width="5"/>
<path opacity="0.137931" d="M-225.079 190.486C559.856 -102.889 927.677 810.918 1729.85 561.64" stroke="url(#paint3_linear)" stroke-opacity="0.1" stroke-width="5"/>
<path opacity="0.172414" d="M-231.747 195.264C547.088 -87.8275 915.937 804.348 1712.06 564.307" stroke="url(#paint4_linear)" stroke-opacity="0.1" stroke-width="5"/>
<path opacity="0.206897" d="M-238.414 200.043C534.321 -72.766 904.198 797.778 1694.27 566.975" stroke="url(#paint5_linear)" stroke-opacity="0.1" stroke-width="5"/>
<path opacity="0.241379" d="M-245.082 204.821C521.552 -57.7047 892.457 791.207 1676.48 569.642" stroke="url(#paint6_linear)" stroke-opacity="0.1" stroke-width="5"/>
<path opacity="0.275862" d="M-251.747 209.601C508.787 -42.6414 880.72 784.639 1658.7 572.311" stroke="url(#paint7_linear)" stroke-opacity="0.1" stroke-width="5"/>
<path opacity="0.310345" d="M-258.415 214.378C496.02 -27.5811 868.98 778.067 1640.91 574.977" stroke="url(#paint8_linear)" stroke-opacity="0.1" stroke-width="5"/>
<path opacity="0.344828" d="M-265.081 219.157C483.254 -12.5185 857.242 771.498 1623.13 577.645" stroke="url(#paint9_linear)" stroke-opacity="0.1" stroke-width="5"/>
<path opacity="0.37931" d="M-271.749 223.935C470.486 2.54249 845.503 764.927 1605.34 580.312" stroke="url(#paint10_linear)" stroke-opacity="0.1" stroke-width="5"/>
<path opacity="0.413793" d="M-278.419 228.714C457.716 17.6052 833.761 758.358 1587.55 582.98" stroke="url(#paint11_linear)" stroke-opacity="0.1" stroke-width="5"/>
<path opacity="0.448276" d="M-285.085 233.492C444.95 32.6664 822.023 751.788 1569.77 585.647" stroke="url(#paint12_linear)" stroke-opacity="0.1" stroke-width="5"/>
<path opacity="0.482759" d="M-291.752 238.272C432.182 47.7288 810.283 745.218 1551.98 588.315" stroke="url(#paint13_linear)" stroke-opacity="0.1" stroke-width="5"/>
<path opacity="0.517241" d="M-298.421 243.05C419.413 62.7902 798.542 738.648 1534.19 590.982" stroke="url(#paint14_linear)" stroke-opacity="0.1" stroke-width="5"/>
<path opacity="0.551724" d="M-305.086 247.829C406.648 77.8526 786.804 732.079 1516.41 593.65" stroke="url(#paint15_linear)" stroke-opacity="0.1" stroke-width="5"/>
<path opacity="0.586207" d="M-311.754 252.607C393.879 92.9133 775.064 725.508 1498.62 596.317" stroke="url(#paint16_linear)" stroke-opacity="0.1" stroke-width="5"/>
<path opacity="0.62069" d="M-318.417 257.386C381.117 107.976 763.33 718.939 1480.84 598.985" stroke="url(#paint17_linear)" stroke-opacity="0.1" stroke-width="5"/>
<path opacity="0.655172" d="M-325.088 262.165C368.346 123.038 751.586 712.369 1463.05 601.653" stroke="url(#paint18_linear)" stroke-opacity="0.1" stroke-width="5"/>
<path opacity="0.689655" d="M-331.755 266.944C355.578 138.1 739.847 705.8 1445.26 604.321" stroke="url(#paint19_linear)" stroke-opacity="0.1" stroke-width="5"/>
<path opacity="0.724138" d="M-338.425 271.721C342.808 153.161 728.105 699.228 1427.47 606.987" stroke="url(#paint20_linear)" stroke-opacity="0.1" stroke-width="5"/>
<path opacity="0.758621" d="M-345.092 276.499C330.041 168.222 716.366 692.658 1409.69 609.654" stroke="url(#paint21_linear)" stroke-opacity="0.1" stroke-width="5"/>
<path opacity="0.793103" d="M-351.756 281.278C317.277 183.285 704.63 686.089 1391.9 612.322" stroke="url(#paint22_linear)" stroke-opacity="0.1" stroke-width="5"/>
<path opacity="0.827586" d="M-358.423 286.057C304.509 198.347 692.89 679.519 1374.11 614.99" stroke="url(#paint23_linear)" stroke-opacity="0.1" stroke-width="5"/>
<path opacity="0.862069" d="M-365.094 290.836C291.739 213.408 681.148 672.949 1356.33 617.657" stroke="url(#paint24_linear)" stroke-opacity="0.1" stroke-width="5"/>
<path opacity="0.896552" d="M-371.76 295.615C278.973 228.471 669.41 666.38 1338.54 620.326" stroke="url(#paint25_linear)" stroke-opacity="0.1" stroke-width="5"/>
<path opacity="0.931035" d="M-378.426 300.393C266.207 243.532 657.672 659.809 1320.75 622.993" stroke="url(#paint26_linear)" stroke-opacity="0.1" stroke-width="5"/>
<path opacity="0.965517" d="M-385.092 305.172C253.441 258.594 645.934 653.239 1302.97 625.66" stroke="url(#paint27_linear)" stroke-opacity="0.1" stroke-width="5"/>
<path d="M-391.762 309.949C240.671 273.655 634.192 646.669 1285.18 628.327" stroke="url(#paint28_linear)" stroke-opacity="0.1" stroke-width="5"/>
<defs>
<linearGradient id="paint0_linear" x1="-147.853" y1="177.398" x2="1784.88" y2="544.34" gradientUnits="userSpaceOnUse">
<stop stop-color="#822222" stop-opacity="0.5"/>
<stop offset="1" stop-color="#B63030" stop-opacity="0.5"/>
</linearGradient>
<linearGradient id="paint1_linear" x1="-154.873" y1="182.341" x2="1767.05" y2="547.231" gradientUnits="userSpaceOnUse">
<stop stop-color="#822222" stop-opacity="0.5"/>
<stop offset="1" stop-color="#B63030" stop-opacity="0.5"/>
</linearGradient>
<linearGradient id="paint2_linear" x1="-161.894" y1="187.284" x2="1749.23" y2="550.121" gradientUnits="userSpaceOnUse">
<stop stop-color="#822222" stop-opacity="0.5"/>
<stop offset="1" stop-color="#B63030" stop-opacity="0.5"/>
</linearGradient>
<linearGradient id="paint3_linear" x1="-168.914" y1="192.226" x2="1731.4" y2="553.011" gradientUnits="userSpaceOnUse">
<stop stop-color="#822222" stop-opacity="0.5"/>
<stop offset="1" stop-color="#B63030" stop-opacity="0.5"/>
</linearGradient>
<linearGradient id="paint4_linear" x1="-175.934" y1="197.168" x2="1713.57" y2="555.901" gradientUnits="userSpaceOnUse">
<stop stop-color="#822222" stop-opacity="0.5"/>
<stop offset="1" stop-color="#B63030" stop-opacity="0.5"/>
</linearGradient>
<linearGradient id="paint5_linear" x1="-182.954" y1="202.11" x2="1695.74" y2="558.791" gradientUnits="userSpaceOnUse">
<stop stop-color="#822222" stop-opacity="0.5"/>
<stop offset="1" stop-color="#B63030" stop-opacity="0.5"/>
</linearGradient>
<linearGradient id="paint6_linear" x1="-189.974" y1="207.052" x2="1677.91" y2="561.681" gradientUnits="userSpaceOnUse">
<stop stop-color="#822222" stop-opacity="0.5"/>
<stop offset="1" stop-color="#B63030" stop-opacity="0.5"/>
</linearGradient>
<linearGradient id="paint7_linear" x1="-196.992" y1="211.996" x2="1660.08" y2="564.573" gradientUnits="userSpaceOnUse">
<stop stop-color="#822222" stop-opacity="0.5"/>
<stop offset="1" stop-color="#B63030" stop-opacity="0.5"/>
</linearGradient>
<linearGradient id="paint8_linear" x1="-204.012" y1="216.937" x2="1642.25" y2="567.462" gradientUnits="userSpaceOnUse">
<stop stop-color="#822222" stop-opacity="0.5"/>
<stop offset="1" stop-color="#B63030" stop-opacity="0.5"/>
</linearGradient>
<linearGradient id="paint9_linear" x1="-211.03" y1="221.88" x2="1624.43" y2="570.353" gradientUnits="userSpaceOnUse">
<stop stop-color="#822222" stop-opacity="0.5"/>
<stop offset="1" stop-color="#B63030" stop-opacity="0.5"/>
</linearGradient>
<linearGradient id="paint10_linear" x1="-218.051" y1="226.822" x2="1606.6" y2="573.242" gradientUnits="userSpaceOnUse">
<stop stop-color="#822222" stop-opacity="0.5"/>
<stop offset="1" stop-color="#B63030" stop-opacity="0.5"/>
</linearGradient>
<linearGradient id="paint11_linear" x1="-225.073" y1="231.765" x2="1588.77" y2="576.134" gradientUnits="userSpaceOnUse">
<stop stop-color="#822222" stop-opacity="0.5"/>
<stop offset="1" stop-color="#B63030" stop-opacity="0.5"/>
</linearGradient>
<linearGradient id="paint12_linear" x1="-232.091" y1="236.707" x2="1570.94" y2="579.023" gradientUnits="userSpaceOnUse">
<stop stop-color="#822222" stop-opacity="0.5"/>
<stop offset="1" stop-color="#B63030" stop-opacity="0.5"/>
</linearGradient>
<linearGradient id="paint13_linear" x1="-239.111" y1="241.65" x2="1553.11" y2="581.914" gradientUnits="userSpaceOnUse">
<stop stop-color="#822222" stop-opacity="0.5"/>
<stop offset="1" stop-color="#B63030" stop-opacity="0.5"/>
</linearGradient>
<linearGradient id="paint14_linear" x1="-246.133" y1="246.592" x2="1535.28" y2="584.804" gradientUnits="userSpaceOnUse">
<stop stop-color="#822222" stop-opacity="0.5"/>
<stop offset="1" stop-color="#B63030" stop-opacity="0.5"/>
</linearGradient>
<linearGradient id="paint15_linear" x1="-253.15" y1="251.535" x2="1517.46" y2="587.695" gradientUnits="userSpaceOnUse">
<stop stop-color="#822222" stop-opacity="0.5"/>
<stop offset="1" stop-color="#B63030" stop-opacity="0.5"/>
</linearGradient>
<linearGradient id="paint16_linear" x1="-260.171" y1="256.476" x2="1499.63" y2="590.584" gradientUnits="userSpaceOnUse">
<stop stop-color="#822222" stop-opacity="0.5"/>
<stop offset="1" stop-color="#B63030" stop-opacity="0.5"/>
</linearGradient>
<linearGradient id="paint17_linear" x1="-267.186" y1="261.42" x2="1481.8" y2="593.476" gradientUnits="userSpaceOnUse">
<stop stop-color="#822222" stop-opacity="0.5"/>
<stop offset="1" stop-color="#B63030" stop-opacity="0.5"/>
</linearGradient>
<linearGradient id="paint18_linear" x1="-274.209" y1="266.363" x2="1463.97" y2="596.366" gradientUnits="userSpaceOnUse">
<stop stop-color="#822222" stop-opacity="0.5"/>
<stop offset="1" stop-color="#B63030" stop-opacity="0.5"/>
</linearGradient>
<linearGradient id="paint19_linear" x1="-281.229" y1="271.305" x2="1446.14" y2="599.257" gradientUnits="userSpaceOnUse">
<stop stop-color="#822222" stop-opacity="0.5"/>
<stop offset="1" stop-color="#B63030" stop-opacity="0.5"/>
</linearGradient>
<linearGradient id="paint20_linear" x1="-288.251" y1="276.247" x2="1428.31" y2="602.146" gradientUnits="userSpaceOnUse">
<stop stop-color="#822222" stop-opacity="0.5"/>
<stop offset="1" stop-color="#B63030" stop-opacity="0.5"/>
</linearGradient>
<linearGradient id="paint21_linear" x1="-295.271" y1="281.189" x2="1410.48" y2="605.036" gradientUnits="userSpaceOnUse">
<stop stop-color="#822222" stop-opacity="0.5"/>
<stop offset="1" stop-color="#B63030" stop-opacity="0.5"/>
</linearGradient>
<linearGradient id="paint22_linear" x1="-302.287" y1="286.132" x2="1392.66" y2="607.927" gradientUnits="userSpaceOnUse">
<stop stop-color="#822222" stop-opacity="0.5"/>
<stop offset="1" stop-color="#B63030" stop-opacity="0.5"/>
</linearGradient>
<linearGradient id="paint23_linear" x1="-309.307" y1="291.074" x2="1374.83" y2="610.818" gradientUnits="userSpaceOnUse">
<stop stop-color="#822222" stop-opacity="0.5"/>
<stop offset="1" stop-color="#B63030" stop-opacity="0.5"/>
</linearGradient>
<linearGradient id="paint24_linear" x1="-316.33" y1="296.017" x2="1357" y2="613.708" gradientUnits="userSpaceOnUse">
<stop stop-color="#822222" stop-opacity="0.5"/>
<stop offset="1" stop-color="#B63030" stop-opacity="0.5"/>
</linearGradient>
<linearGradient id="paint25_linear" x1="-323.348" y1="300.96" x2="1339.17" y2="616.599" gradientUnits="userSpaceOnUse">
<stop stop-color="#822222" stop-opacity="0.5"/>
<stop offset="1" stop-color="#B63030" stop-opacity="0.5"/>
</linearGradient>
<linearGradient id="paint26_linear" x1="-330.367" y1="305.902" x2="1321.34" y2="619.489" gradientUnits="userSpaceOnUse">
<stop stop-color="#822222" stop-opacity="0.5"/>
<stop offset="1" stop-color="#B63030" stop-opacity="0.5"/>
</linearGradient>
<linearGradient id="paint27_linear" x1="-337.385" y1="310.844" x2="1303.52" y2="622.379" gradientUnits="userSpaceOnUse">
<stop stop-color="#822222" stop-opacity="0.5"/>
<stop offset="1" stop-color="#B63030" stop-opacity="0.5"/>
</linearGradient>
<linearGradient id="paint28_linear" x1="-344.408" y1="315.786" x2="1285.69" y2="625.269" gradientUnits="userSpaceOnUse">
<stop stop-color="#822222" stop-opacity="0.5"/>
<stop offset="1" stop-color="#B63030" stop-opacity="0.5"/>
</linearGradient>
</defs>
</svg>
