<svg width="375" height="756" viewBox="0 0 375 756" fill="none" xmlns="http://www.w3.org/2000/svg">
<path opacity="0.0344828" d="M468.607 233.735C414.295 836.624 -227.851 50.2121 -313.002 614.951" stroke="url(#paint0_linear)" stroke-opacity="0.07" stroke-width="5"/>
<path opacity="0.0689655" d="M467.913 226.764C409.725 817.71 -220.855 52.047 -309.324 605.848" stroke="url(#paint1_linear)" stroke-opacity="0.07" stroke-width="5"/>
<path opacity="0.103448" d="M467.219 219.794C405.155 798.797 -213.86 53.884 -305.647 596.746" stroke="url(#paint2_linear)" stroke-opacity="0.07" stroke-width="5"/>
<path opacity="0.137931" d="M466.526 212.825C400.584 779.885 -206.864 55.7211 -301.97 587.645" stroke="url(#paint3_linear)" stroke-opacity="0.07" stroke-width="5"/>
<path opacity="0.172414" d="M465.832 205.855C396.014 760.973 -199.868 57.5584 -298.292 578.544" stroke="url(#paint4_linear)" stroke-opacity="0.07" stroke-width="5"/>
<path opacity="0.206897" d="M465.138 198.886C391.443 742.061 -192.872 59.3952 -294.615 569.442" stroke="url(#paint5_linear)" stroke-opacity="0.07" stroke-width="5"/>
<path opacity="0.241379" d="M464.445 191.915C386.873 723.147 -185.876 61.2313 -290.937 560.34" stroke="url(#paint6_linear)" stroke-opacity="0.07" stroke-width="5"/>
<path opacity="0.275862" d="M463.75 184.946C382.301 704.235 -178.882 63.0686 -287.261 551.238" stroke="url(#paint7_linear)" stroke-opacity="0.07" stroke-width="5"/>
<path opacity="0.310345" d="M463.056 177.977C377.731 685.324 -171.886 64.9064 -283.584 542.138" stroke="url(#paint8_linear)" stroke-opacity="0.07" stroke-width="5"/>
<path opacity="0.344828" d="M462.362 171.008C373.16 666.412 -164.89 66.7438 -279.907 533.037" stroke="url(#paint9_linear)" stroke-opacity="0.07" stroke-width="5"/>
<path opacity="0.37931" d="M461.669 164.036C368.59 647.498 -157.894 68.5789 -276.229 523.933" stroke="url(#paint10_linear)" stroke-opacity="0.07" stroke-width="5"/>
<path opacity="0.413793" d="M460.975 157.066C364.019 628.584 -150.899 70.4147 -272.552 514.831" stroke="url(#paint11_linear)" stroke-opacity="0.07" stroke-width="5"/>
<path opacity="0.448276" d="M460.281 150.098C359.449 609.673 -143.903 72.253 -268.875 505.73" stroke="url(#paint12_linear)" stroke-opacity="0.07" stroke-width="5"/>
<path opacity="0.482759" d="M459.586 143.128C354.878 590.761 -136.908 74.0901 -265.198 496.629" stroke="url(#paint13_linear)" stroke-opacity="0.07" stroke-width="5"/>
<path opacity="0.517241" d="M458.893 136.157C350.308 571.847 -129.911 75.9257 -261.52 487.526" stroke="url(#paint14_linear)" stroke-opacity="0.07" stroke-width="5"/>
<path opacity="0.551724" d="M458.199 129.188C345.737 552.935 -122.916 77.763 -257.843 478.425" stroke="url(#paint15_linear)" stroke-opacity="0.07" stroke-width="5"/>
<path opacity="0.586207" d="M457.505 122.219C341.167 534.023 -115.92 79.6003 -254.166 469.324" stroke="url(#paint16_linear)" stroke-opacity="0.07" stroke-width="5"/>
<path opacity="0.62069" d="M456.81 115.25C336.594 515.112 -108.926 81.4386 -250.49 460.224" stroke="url(#paint17_linear)" stroke-opacity="0.07" stroke-width="5"/>
<path opacity="0.655172" d="M456.117 108.278C332.024 496.197 -101.929 83.2732 -246.812 451.12" stroke="url(#paint18_linear)" stroke-opacity="0.07" stroke-width="5"/>
<path opacity="0.689655" d="M455.423 101.308C327.454 477.284 -94.9337 85.1096 -243.135 442.018" stroke="url(#paint19_linear)" stroke-opacity="0.07" stroke-width="5"/>
<path opacity="0.724138" d="M454.73 94.3397C322.884 458.373 -87.9374 86.9476 -239.457 432.917" stroke="url(#paint20_linear)" stroke-opacity="0.07" stroke-width="5"/>
<path opacity="0.758621" d="M454.036 87.3687C318.314 439.459 -80.9411 88.7832 -235.779 423.814" stroke="url(#paint21_linear)" stroke-opacity="0.07" stroke-width="5"/>
<path opacity="0.793103" d="M453.341 80.3997C313.742 420.547 -73.9473 90.6207 -232.104 414.713" stroke="url(#paint22_linear)" stroke-opacity="0.07" stroke-width="5"/>
<path opacity="0.827586" d="M452.647 73.4305C309.172 401.635 -66.951 92.458 -228.426 405.612" stroke="url(#paint23_linear)" stroke-opacity="0.07" stroke-width="5"/>
<path opacity="0.862069" d="M451.954 66.4595C304.601 382.722 -59.9553 94.2937 -224.749 396.509" stroke="url(#paint24_linear)" stroke-opacity="0.07" stroke-width="5"/>
<path opacity="0.896552" d="M451.26 59.4905C300.031 363.81 -52.9594 96.1312 -221.071 387.408" stroke="url(#paint25_linear)" stroke-opacity="0.07" stroke-width="5"/>
<path opacity="0.931035" d="M450.565 52.521C295.46 344.898 -45.9644 97.9682 -217.395 378.307" stroke="url(#paint26_linear)" stroke-opacity="0.07" stroke-width="5"/>
<path opacity="0.965517" d="M449.871 45.5513C290.889 325.985 -38.9691 99.8051 -213.718 369.205" stroke="url(#paint27_linear)" stroke-opacity="0.07" stroke-width="5"/>
<path d="M449.178 38.5811C286.319 307.072 -31.9725 101.641 -210.04 360.103" stroke="url(#paint28_linear)" stroke-opacity="0.07" stroke-width="5"/>
<defs>
<linearGradient id="paint0_linear" x1="451.386" y1="253.761" x2="-308.387" y2="624.327" gradientUnits="userSpaceOnUse">
<stop stop-color="#753636" stop-opacity="0.5"/>
<stop offset="1" stop-color="#B63030" stop-opacity="0.5"/>
</linearGradient>
<linearGradient id="paint1_linear" x1="450.704" y1="246.504" x2="-304.82" y2="614.998" gradientUnits="userSpaceOnUse">
<stop stop-color="#753636" stop-opacity="0.5"/>
<stop offset="1" stop-color="#B63030" stop-opacity="0.5"/>
</linearGradient>
<linearGradient id="paint2_linear" x1="450.022" y1="239.25" x2="-301.252" y2="605.671" gradientUnits="userSpaceOnUse">
<stop stop-color="#753636" stop-opacity="0.5"/>
<stop offset="1" stop-color="#B63030" stop-opacity="0.5"/>
</linearGradient>
<linearGradient id="paint3_linear" x1="449.341" y1="231.996" x2="-297.685" y2="596.345" gradientUnits="userSpaceOnUse">
<stop stop-color="#753636" stop-opacity="0.5"/>
<stop offset="1" stop-color="#B63030" stop-opacity="0.5"/>
</linearGradient>
<linearGradient id="paint4_linear" x1="448.659" y1="224.742" x2="-294.118" y2="587.018" gradientUnits="userSpaceOnUse">
<stop stop-color="#753636" stop-opacity="0.5"/>
<stop offset="1" stop-color="#B63030" stop-opacity="0.5"/>
</linearGradient>
<linearGradient id="paint5_linear" x1="447.977" y1="217.487" x2="-290.551" y2="577.691" gradientUnits="userSpaceOnUse">
<stop stop-color="#753636" stop-opacity="0.5"/>
<stop offset="1" stop-color="#B63030" stop-opacity="0.5"/>
</linearGradient>
<linearGradient id="paint6_linear" x1="447.296" y1="210.232" x2="-286.983" y2="568.363" gradientUnits="userSpaceOnUse">
<stop stop-color="#753636" stop-opacity="0.5"/>
<stop offset="1" stop-color="#B63030" stop-opacity="0.5"/>
</linearGradient>
<linearGradient id="paint7_linear" x1="446.612" y1="202.978" x2="-283.417" y2="559.037" gradientUnits="userSpaceOnUse">
<stop stop-color="#753636" stop-opacity="0.5"/>
<stop offset="1" stop-color="#B63030" stop-opacity="0.5"/>
</linearGradient>
<linearGradient id="paint8_linear" x1="445.931" y1="195.724" x2="-279.85" y2="549.711" gradientUnits="userSpaceOnUse">
<stop stop-color="#753636" stop-opacity="0.5"/>
<stop offset="1" stop-color="#B63030" stop-opacity="0.5"/>
</linearGradient>
<linearGradient id="paint9_linear" x1="445.249" y1="188.47" x2="-276.283" y2="540.384" gradientUnits="userSpaceOnUse">
<stop stop-color="#753636" stop-opacity="0.5"/>
<stop offset="1" stop-color="#B63030" stop-opacity="0.5"/>
</linearGradient>
<linearGradient id="paint10_linear" x1="444.567" y1="181.213" x2="-272.716" y2="531.056" gradientUnits="userSpaceOnUse">
<stop stop-color="#753636" stop-opacity="0.5"/>
<stop offset="1" stop-color="#B63030" stop-opacity="0.5"/>
</linearGradient>
<linearGradient id="paint11_linear" x1="443.885" y1="173.958" x2="-269.149" y2="521.728" gradientUnits="userSpaceOnUse">
<stop stop-color="#753636" stop-opacity="0.5"/>
<stop offset="1" stop-color="#B63030" stop-opacity="0.5"/>
</linearGradient>
<linearGradient id="paint12_linear" x1="443.204" y1="166.705" x2="-265.581" y2="512.402" gradientUnits="userSpaceOnUse">
<stop stop-color="#753636" stop-opacity="0.5"/>
<stop offset="1" stop-color="#B63030" stop-opacity="0.5"/>
</linearGradient>
<linearGradient id="paint13_linear" x1="442.521" y1="159.45" x2="-262.015" y2="503.076" gradientUnits="userSpaceOnUse">
<stop stop-color="#753636" stop-opacity="0.5"/>
<stop offset="1" stop-color="#B63030" stop-opacity="0.5"/>
</linearGradient>
<linearGradient id="paint14_linear" x1="441.84" y1="152.195" x2="-258.447" y2="493.747" gradientUnits="userSpaceOnUse">
<stop stop-color="#753636" stop-opacity="0.5"/>
<stop offset="1" stop-color="#B63030" stop-opacity="0.5"/>
</linearGradient>
<linearGradient id="paint15_linear" x1="441.157" y1="144.94" x2="-254.881" y2="484.421" gradientUnits="userSpaceOnUse">
<stop stop-color="#753636" stop-opacity="0.5"/>
<stop offset="1" stop-color="#B63030" stop-opacity="0.5"/>
</linearGradient>
<linearGradient id="paint16_linear" x1="440.476" y1="137.686" x2="-251.313" y2="475.094" gradientUnits="userSpaceOnUse">
<stop stop-color="#753636" stop-opacity="0.5"/>
<stop offset="1" stop-color="#B63030" stop-opacity="0.5"/>
</linearGradient>
<linearGradient id="paint17_linear" x1="439.793" y1="130.433" x2="-247.748" y2="465.769" gradientUnits="userSpaceOnUse">
<stop stop-color="#753636" stop-opacity="0.5"/>
<stop offset="1" stop-color="#B63030" stop-opacity="0.5"/>
</linearGradient>
<linearGradient id="paint18_linear" x1="439.111" y1="123.176" x2="-244.18" y2="456.44" gradientUnits="userSpaceOnUse">
<stop stop-color="#753636" stop-opacity="0.5"/>
<stop offset="1" stop-color="#B63030" stop-opacity="0.5"/>
</linearGradient>
<linearGradient id="paint19_linear" x1="438.43" y1="115.921" x2="-240.613" y2="447.112" gradientUnits="userSpaceOnUse">
<stop stop-color="#753636" stop-opacity="0.5"/>
<stop offset="1" stop-color="#B63030" stop-opacity="0.5"/>
</linearGradient>
<linearGradient id="paint20_linear" x1="437.748" y1="108.668" x2="-237.045" y2="437.786" gradientUnits="userSpaceOnUse">
<stop stop-color="#753636" stop-opacity="0.5"/>
<stop offset="1" stop-color="#B63030" stop-opacity="0.5"/>
</linearGradient>
<linearGradient id="paint21_linear" x1="437.067" y1="101.412" x2="-233.477" y2="428.458" gradientUnits="userSpaceOnUse">
<stop stop-color="#753636" stop-opacity="0.5"/>
<stop offset="1" stop-color="#B63030" stop-opacity="0.5"/>
</linearGradient>
<linearGradient id="paint22_linear" x1="436.383" y1="94.1581" x2="-229.912" y2="419.132" gradientUnits="userSpaceOnUse">
<stop stop-color="#753636" stop-opacity="0.5"/>
<stop offset="1" stop-color="#B63030" stop-opacity="0.5"/>
</linearGradient>
<linearGradient id="paint23_linear" x1="435.702" y1="86.904" x2="-226.344" y2="409.806" gradientUnits="userSpaceOnUse">
<stop stop-color="#753636" stop-opacity="0.5"/>
<stop offset="1" stop-color="#B63030" stop-opacity="0.5"/>
</linearGradient>
<linearGradient id="paint24_linear" x1="435.02" y1="79.6481" x2="-222.777" y2="400.477" gradientUnits="userSpaceOnUse">
<stop stop-color="#753636" stop-opacity="0.5"/>
<stop offset="1" stop-color="#B63030" stop-opacity="0.5"/>
</linearGradient>
<linearGradient id="paint25_linear" x1="434.338" y1="72.3943" x2="-219.21" y2="391.151" gradientUnits="userSpaceOnUse">
<stop stop-color="#753636" stop-opacity="0.5"/>
<stop offset="1" stop-color="#B63030" stop-opacity="0.5"/>
</linearGradient>
<linearGradient id="paint26_linear" x1="433.656" y1="65.1399" x2="-215.644" y2="381.824" gradientUnits="userSpaceOnUse">
<stop stop-color="#753636" stop-opacity="0.5"/>
<stop offset="1" stop-color="#B63030" stop-opacity="0.5"/>
</linearGradient>
<linearGradient id="paint27_linear" x1="432.974" y1="57.8853" x2="-212.077" y2="372.497" gradientUnits="userSpaceOnUse">
<stop stop-color="#753636" stop-opacity="0.5"/>
<stop offset="1" stop-color="#B63030" stop-opacity="0.5"/>
</linearGradient>
<linearGradient id="paint28_linear" x1="432.293" y1="50.6302" x2="-208.509" y2="363.17" gradientUnits="userSpaceOnUse">
<stop stop-color="#753636" stop-opacity="0.5"/>
<stop offset="1" stop-color="#B63030" stop-opacity="0.5"/>
</linearGradient>
</defs>
</svg>
