<svg width="32" height="32" viewBox="0 0 32 32" fill="none" xmlns="http://www.w3.org/2000/svg">
<path fill-rule="evenodd" clip-rule="evenodd" d="M19.3999 9H12.6C11.8 9.1 11.4 9.2 11.1 9.3C10.7 9.4 10.4 9.6 10.1 9.9C9.86296 10.1374 9.74996 10.3748 9.61496 10.6617C9.57896 10.7373 9.54195 10.8166 9.49995 10.9C9.48495 10.9464 9.46695 10.9952 9.44795 11.0475C9.34295 11.3333 9.19995 11.7238 9.19995 12.4V19.2C9.29995 20 9.39995 20.4 9.49995 20.7C9.59995 21.1 9.79996 21.4 10.1 21.7C10.337 21.9374 10.575 22.0495 10.862 22.1851C10.937 22.2209 11.017 22.2583 11.1 22.3C11.146 22.3155 11.195 22.3333 11.248 22.3525C11.533 22.4571 11.924 22.6 12.6 22.6H19.3999C20.1999 22.5 20.5999 22.4 20.8999 22.3C21.2999 22.2 21.5999 22 21.8999 21.7C22.1369 21.4626 22.2499 21.2252 22.3849 20.9383C22.4209 20.8626 22.458 20.7835 22.5 20.7C22.515 20.6536 22.533 20.6048 22.552 20.5525C22.657 20.2667 22.8 19.8762 22.8 19.2V12.4C22.7 11.6 22.6 11.2 22.5 10.9C22.4 10.5 22.1999 10.2 21.8999 9.9C21.6629 9.66261 21.425 9.55045 21.138 9.41488C21.063 9.37918 20.9829 9.34167 20.8999 9.3C20.8539 9.28453 20.805 9.26666 20.752 9.24752C20.467 9.1429 20.0759 9 19.3999 9ZM16 11.5C13.6 11.5 11.7 13.4 11.7 15.8C11.7 18.2 13.6 20.1 16 20.1C18.4 20.1 20.3 18.2 20.3 15.8C20.3 13.4 18.4 11.5 16 11.5ZM21.3999 11.4C21.3999 11.9523 20.9519 12.4 20.3999 12.4C19.8479 12.4 19.3999 11.9523 19.3999 11.4C19.3999 10.8477 19.8479 10.4 20.3999 10.4C20.9519 10.4 21.3999 10.8477 21.3999 11.4Z" fill="#8F2525"/>
<path fill-rule="evenodd" clip-rule="evenodd" d="M0 16C0 7.16344 7.163 0 16 0C24.837 0 32 7.16344 32 16C32 24.8366 24.837 32 16 32C7.163 32 0 24.8366 0 16ZM12.6 7.7H19.4C20.3 7.8 20.9 7.9 21.4 8.1C22 8.4 22.4 8.6 22.9 9.1C23.4 9.6 23.7 10.1 23.9 10.6C24.1 11.1 24.3 11.7 24.3 12.6V19.4C24.2 20.3 24.1 20.9 23.9 21.4C23.6 22 23.4 22.4 22.9 22.9C22.4 23.4 21.9 23.7 21.4 23.9C20.9 24.1 20.3 24.3 19.4 24.3H12.6C11.7 24.2 11.1 24.1 10.6 23.9C10 23.6 9.60001 23.4 9.10001 22.9C8.60001 22.4 8.30001 21.9 8.10001 21.4C7.90001 20.9 7.7 20.3 7.7 19.4V12.6C7.8 11.7 7.90001 11.1 8.10001 10.6C8.40001 10 8.60001 9.6 9.10001 9.1C9.60001 8.6 10.1 8.3 10.6 8.1C11.1 7.9 11.7 7.7 12.6 7.7Z" fill="#8F2525"/>
</svg>
